<?xml version="1.0" encoding="UTF-8" standalone="no"?>
<svg width="35" height="30" viewBox="0 0 35 30" fill="none" xmlns="http://www.w3.org/2000/svg">
    <path d="M0 2.82828C0 1.26707 1.26707 0 2.82828 0H32.1717C33.7329 0 35 1.26707 35 2.82828C35 4.38949 33.7329 5.65657 32.1717 5.65657H2.82828C1.26707 5.65657 0 4.38949 0 2.82828ZM32.1717 12.0202H2.82828C1.26707 12.0202 0 13.2873 0 14.8485C0 16.4097 1.26707 17.6768 2.82828 17.6768H32.1717C33.7329 17.6768 35 16.4097 35 14.8485C35 13.2873 33.7343 12.0202 32.1717 12.0202ZM32.1717 24.0404H2.82828C1.26707 24.0404 0 25.3075 0 26.8687C0 28.4299 1.26707 29.697 2.82828 29.697H32.1717C33.7329 29.697 35 28.4299 35 26.8687C35 25.3075 33.7343 24.0404 32.1717 24.0404Z" fill="white"/>
</svg>
