<?xml version="1.0" encoding="UTF-8" standalone="no"?>
<svg width="20" height="20" viewBox="0 0 20 20" fill="none" xmlns="http://www.w3.org/2000/svg">
    <path d="M0.0277063 17.7535C2.22838 17.9954 4.21136 17.3181 6.01623 15.6637C4.12824 15.4605 2.86562 14.3091 2.16109 12.1516C2.77855 12.2435 3.35642 12.2677 3.96992 12.0645C1.93548 11.2905 0.85098 9.66505 0.704532 7.04307C1.31407 7.39138 1.88799 7.64294 2.56481 7.65261C1.35761 6.5448 0.740154 5.10803 0.763903 3.29877C0.775777 2.4667 0.957847 1.68301 1.31803 0.942861C3.55432 4.14051 6.36058 5.91108 9.81595 6.20617C9.79616 6.02234 9.78429 5.87721 9.76845 5.72725C9.48347 3.04722 10.9084 0.609067 13.0853 0.101119C14.4508 -0.218163 15.658 0.222059 16.6792 1.37341C16.8375 1.54756 16.9721 1.58626 17.17 1.52337C17.9656 1.27666 18.7215 0.918673 19.4538 0.434913C19.1728 1.56691 18.5949 2.41833 17.8112 3.13429C17.9893 3.09559 18.1714 3.06657 18.3495 3.02303C18.5355 2.97465 18.7216 2.92144 18.9076 2.85855C19.0857 2.8005 19.2598 2.73277 19.434 2.66021C19.6121 2.58764 19.7902 2.50541 20 2.46187C19.8971 2.63602 19.7981 2.81985 19.6873 2.98917C19.2282 3.70029 18.6978 4.32434 18.116 4.88067C18.0566 4.93872 18.0051 5.0645 18.0091 5.15157C18.0408 6.86892 17.8429 8.54273 17.3877 10.1682C16.4932 13.3707 14.9337 15.9636 12.5945 17.8164C11.4387 18.7307 10.1761 19.3306 8.82644 19.6789C7.48862 20.0223 6.14289 20.0852 4.79319 19.8917C3.43954 19.6982 2.15318 19.2096 0.942015 18.4453C0.621413 18.247 0.312686 18.0244 0 17.8116C0.0118741 17.7922 0.0197902 17.7729 0.0277063 17.7535Z" fill="#D3D3D3"/>
</svg>
