<?xml version="1.0" encoding="UTF-8" standalone="no"?>
<svg width="20" height="20" viewBox="0 0 20 20" fill="none" xmlns="http://www.w3.org/2000/svg">
    <path d="M16.5 0H3.5C1.567 0 0 1.567 0 3.5V16.5C0 18.433 1.567 20 3.5 20H16.5C18.433 20 20 18.433 20 16.5V3.5C20 1.567 18.433 0 16.5 0Z" fill="#D5D5D5"/>
    <path d="M3.00621 6.1774H5.40621C5.45639 6.17732 5.5054 6.19253 5.54671 6.221C5.58802 6.24947 5.61968 6.28986 5.63746 6.33677C5.90309 7.02115 7.00621 9.69927 8.01559 9.91802C8.76559 9.91802 8.49996 6.35552 7.54684 6.35552C7.29684 6.35552 7.99059 5.91177 8.03746 5.89302C8.92321 5.65024 9.85796 5.65024 10.7437 5.89302C11.2218 6.09302 11.3031 6.6524 11.3156 7.1274C11.3281 7.6024 10.7843 9.6274 11.5 9.84615C12.4375 10.1336 13.6437 7.19302 13.925 6.47115C13.9432 6.42481 13.9751 6.3851 14.0164 6.35721C14.0577 6.32932 14.1064 6.31457 14.1562 6.3149H16.8281C16.8694 6.31477 16.9101 6.32487 16.9465 6.34429C16.9829 6.36372 17.014 6.39187 17.0369 6.42622C17.0598 6.46058 17.0738 6.50007 17.0777 6.54117C17.0817 6.58228 17.0753 6.62371 17.0593 6.66177C16.509 7.91732 15.8491 9.12197 15.0875 10.2618C15.0227 10.3558 14.9923 10.4693 15.0014 10.5832C15.0105 10.697 15.0586 10.8042 15.1375 10.8868C15.9375 11.743 18.125 14.168 16.875 14.168H14.1781C14.1084 14.1682 14.0394 14.1535 13.9759 14.125C13.9123 14.0964 13.8555 14.0546 13.8093 14.0024C13.3906 13.5399 12.1718 12.2524 11.6218 12.3555C11.1656 12.4399 11.1218 13.2149 11.1437 13.7211C11.1506 13.8518 11.106 13.9799 11.0196 14.078C10.9331 14.1762 10.8117 14.2365 10.6812 14.2461C10.2031 14.2743 9.54996 14.2868 9.49059 14.2836C7.58434 14.1618 6.45621 12.8899 5.37809 11.4711C4.24876 9.96701 3.36779 8.2916 2.76871 6.50865C2.75647 6.47092 2.75326 6.43085 2.75935 6.39165C2.76543 6.35246 2.78065 6.31524 2.80376 6.28301C2.82687 6.25077 2.85723 6.22442 2.8924 6.20608C2.92757 6.18773 2.96655 6.17791 3.00621 6.1774Z" fill="black"/>
</svg>
