<svg width="13" height="13" viewBox="0 0 13 13" fill="none" xmlns="http://www.w3.org/2000/svg">
<path d="M6.5 0C2.91586 0 0 2.91586 0 6.5C0 10.0841 2.91586 13 6.5 13C10.0841 13 13 10.0841 13 6.5C13 2.91586 10.0841 0 6.5 0ZM6.5 12.1544C3.38218 12.1544 0.845638 9.61787 0.845638 6.5C0.845638 3.38213 3.38218 0.845638 6.5 0.845638C9.61782 0.845638 12.1544 3.38218 12.1544 6.5C12.1544 9.61782 9.61787 12.1544 6.5 12.1544Z" fill="#898989"/>
<path d="M9.15155 7.55951C8.9548 7.43375 8.69335 7.4912 8.56749 7.68786C8.15905 8.32646 7.46333 8.7077 6.70643 8.7077C5.48928 8.7077 4.49908 7.71746 4.49908 6.5003C4.49908 5.28315 5.48928 4.2929 6.70643 4.2929C7.44087 4.2929 8.12523 4.65686 8.53715 5.26647C8.66784 5.45989 8.9306 5.51081 9.12421 5.38007C9.31767 5.24937 9.36855 4.98652 9.2378 4.79301C8.6685 3.95033 7.72214 3.44727 6.70643 3.44727C5.023 3.44727 3.65344 4.81682 3.65344 6.5003C3.65344 8.18378 5.023 9.55334 6.70643 9.55334C7.75319 9.55334 8.71525 9.02632 9.2799 8.14352C9.40571 7.94681 9.34825 7.68537 9.15155 7.55951Z" fill="#898989"/>
</svg>
