<svg width="35" height="35" viewBox="0 0 35 35" fill="none" xmlns="http://www.w3.org/2000/svg">
    <path d="M17.5 33.9059C21.7354 33.9105 25.8074 32.2715 28.8586 29.334C28.5852 23.2008 27.7812 14.1609 25.3996 8.77695C24.0789 5.79101 20.9836 3.79492 17.5 3.79492C14.0164 3.79492 10.7598 5.70898 9.60039 8.77695C7.54141 14.1992 6.6582 23.332 6.28906 29.4652C9.32296 32.321 13.3335 33.9096 17.5 33.9059Z" fill="#555555"/>
    <path d="M23.0044 9.87891C22.0419 7.56016 20.1388 6.37344 17.6068 6.32422H17.3935C14.8614 6.38437 12.9583 7.57109 11.9958 9.87891C11.0032 12.2605 10.6751 15.8316 11.9958 20.5949C13.2782 25.2434 14.8779 26.1977 17.3935 26.2469H17.6068C20.1224 26.1977 21.7083 25.2297 23.0044 20.5949C24.3361 15.8316 23.997 12.2605 23.0044 9.87891Z" fill="white"/>
    <path d="M21.2129 14.4453H22.4187" stroke="#555555" stroke-width="5.51" stroke-miterlimit="10" stroke-linecap="round"/>
    <path d="M18.7305 24.0632C17.9146 24.1835 17.0854 24.1835 16.2695 24.0632C15.9277 23.973 15.5859 23.7569 15.5859 23.3796C15.5859 23.0022 15.9141 22.7972 16.2695 22.696C17.0796 22.5128 17.9204 22.5128 18.7305 22.696C19.0613 22.7808 19.4141 23.0022 19.4141 23.3796C19.4141 23.7569 19.0668 23.9757 18.7305 24.0632Z" fill="#555555"/>
    <path d="M22.4359 15.8902C21.9151 16.0119 21.37 15.9767 20.8691 15.7891" stroke="#555555" stroke-width="2.21" stroke-miterlimit="10" stroke-linecap="round"/>
    <path d="M20.623 17.7725C20.6475 17.551 20.7528 17.3464 20.9188 17.1977C21.0848 17.049 21.2998 16.9668 21.5227 16.9668C21.7455 16.9668 21.9605 17.049 22.1265 17.1977C22.2925 17.3464 22.3978 17.551 22.4223 17.7725C22.4223 18.2729 21.5172 21.6909 20.9156 21.6909C20.623 21.68 20.623 18.262 20.623 17.7725Z" fill="white"/>
    <path d="M20.6094 12.3043C20.6094 12.5447 20.7049 12.7753 20.8749 12.9453C21.0449 13.1152 21.2754 13.2107 21.5158 13.2107C21.7562 13.2107 21.9868 13.1152 22.1568 12.9453C22.3268 12.7753 22.4223 12.5447 22.4223 12.3043C22.4223 11.8066 21.7141 9.5918 21.2164 9.5918C20.7187 9.5918 20.6094 11.8094 20.6094 12.3043Z" fill="white"/>
    <path d="M12.5811 14.4453H13.7869" stroke="#555555" stroke-width="5.51" stroke-miterlimit="10" stroke-linecap="round"/>
    <path d="M14.1316 15.793C13.6133 15.9818 13.05 16.0095 12.5156 15.8723" stroke="#555555" stroke-width="2.21" stroke-miterlimit="10" stroke-linecap="round"/>
    <path d="M14.391 12.3043C14.391 12.5447 14.2955 12.7753 14.1255 12.9453C13.9555 13.1152 13.725 13.2107 13.4846 13.2107C13.2442 13.2107 13.0136 13.1152 12.8436 12.9453C12.6736 12.7753 12.5781 12.5447 12.5781 12.3043C12.5781 11.8066 13.2863 9.5918 13.784 9.5918C14.2816 9.5918 14.391 11.8094 14.391 12.3043Z" fill="white"/>
    <path d="M14.3773 17.7725C14.3529 17.551 14.2476 17.3464 14.0816 17.1977C13.9156 17.049 13.7006 16.9668 13.4777 16.9668C13.2549 16.9668 13.0399 17.049 12.8739 17.1977C12.7079 17.3464 12.6026 17.551 12.5781 17.7725C12.5781 18.2729 13.4832 21.6909 14.0848 21.6909C14.3773 21.68 14.3773 18.262 14.3773 17.7725Z" fill="white"/>
    <path d="M18.7057 24.6964C18.7057 25.03 18.1588 25.3007 17.4998 25.3007C16.8408 25.3007 16.2939 25.0273 16.2939 24.6964C16.2939 24.5269 16.8408 24.6226 17.4998 24.6226C18.1588 24.6226 18.7057 24.5269 18.7057 24.6964Z" fill="white"/>
    <path opacity="0.2" d="M23.0041 9.88008C22.7204 9.17524 22.3046 8.53112 21.7791 7.98242C22.1756 10.8043 21.9514 14.4465 21.4072 19.4285C20.8357 24.6512 18.2818 25.7996 15.665 25.991C16.2274 26.1645 16.8129 26.2512 17.4014 26.248H17.6146C20.1303 26.1988 21.7162 25.2309 23.0123 20.5961C24.3357 15.8328 23.9967 12.2617 23.0041 9.88008Z" fill="#555555"/>
</svg>
