<svg width="33" height="30" viewBox="0 0 33 30" fill="none" xmlns="http://www.w3.org/2000/svg">
    <path d="M26.708 29.325H6.29134C5.90457 29.325 5.53363 29.1723 5.26014 28.9004C4.98665 28.6286 4.83301 28.2599 4.83301 27.8754V14.8295H0.458008L15.5182 1.22115C15.7867 0.978319 16.1367 0.84375 16.4997 0.84375C16.8627 0.84375 17.2126 0.978319 17.4811 1.22115L32.5413 14.8295H28.1663V27.8754C28.1663 28.2599 28.0127 28.6286 27.7392 28.9004C27.4657 29.1723 27.0948 29.325 26.708 29.325ZM17.958 26.4259H25.2497V12.158L16.4997 4.25216L7.74967 12.158V26.4259H15.0413V17.7286H17.958V26.4259Z" fill="#555555"/>
</svg>
