<?xml version="1.0" encoding="UTF-8" standalone="no"?>
<svg width="25" height="25" viewBox="0 0 25 25" fill="none" xmlns="http://www.w3.org/2000/svg">
    <g clip-path="url(#clip0_557_271)">
        <path d="M9.90532 0C4.44055 0 0 4.33941 0 9.67971C0 15.02 4.44055 19.3594 9.90532 19.3594C12.0676 19.3594 14.0659 18.6788 15.6956 17.5267L23.3612 25L25 23.3986L17.4253 15.9786C18.9139 14.2838 19.8106 12.0841 19.8106 9.67971C19.8106 4.33941 15.3701 0 9.90532 0ZM9.90532 1.13879C14.7396 1.13879 18.6453 4.95552 18.6453 9.67971C18.6453 14.4039 14.7396 18.2206 9.90532 18.2206C5.07101 18.2206 1.16533 14.4039 1.16533 9.67971C1.16533 4.95552 5.07101 1.13879 9.90532 1.13879Z" fill="#B6B6B6"/>
    </g>
    <defs>
        <clipPath id="clip0_557_271">
            <rect width="25" height="25" fill="white"/>
        </clipPath>
    </defs>
</svg>
