<svg width="38" height="38" viewBox="0 0 38 38" fill="none" xmlns="http://www.w3.org/2000/svg">
    <path d="M3.55522 0C2.64589 0 1.73467 0.347444 1.04133 1.04167C-0.347111 2.43011 -0.347111 4.681 1.04133 6.06944L13.6386 18.6667L1.04133 31.2639C-0.347111 32.6523 -0.347111 34.9032 1.04133 36.2917C1.73467 36.985 2.64589 37.3333 3.55522 37.3333C4.46456 37.3333 5.37578 36.9859 6.06911 36.2917L18.6663 23.6944L31.2636 36.2917C32.6502 37.6801 34.9038 37.6801 36.2913 36.2917C37.6807 34.9023 37.6807 32.6532 36.2913 31.2639L23.6941 18.6667L36.2913 6.06944C37.6798 4.681 37.6798 2.43011 36.2913 1.04167C34.9047 -0.345889 32.6502 -0.346778 31.2636 1.04167L18.6663 13.6389L6.06911 1.04167C5.37578 0.348333 4.46456 0 3.55522 0Z" fill="white" fill-opacity="0.6"/>
</svg>
