<svg width="234" height="311" viewBox="0 0 234 311" fill="none" xmlns="http://www.w3.org/2000/svg">
    <rect width="234" height="311" fill="#1263DE"/>
    <g filter="url(#filter0_i_636_738)">
        <rect x="64.5" y="86.5" width="104" height="104" rx="13.5" stroke="white" stroke-width="3"/>
    </g>
    <rect x="77" y="170" width="80" height="31" fill="#1263DE"/>
    <g filter="url(#filter1_i_636_738)">
        <path d="M87.233 181.818H88.7045L92.1648 190.27H92.2841L95.7443 181.818H97.2159V192H96.0625V184.264H95.9631L92.7812 192H91.6676L88.4858 184.264H88.3864V192H87.233V181.818ZM102.731 192.159C101.995 192.159 101.36 191.997 100.827 191.672C100.296 191.344 99.8869 190.886 99.5985 190.3C99.3135 189.71 99.171 189.024 99.171 188.241C99.171 187.459 99.3135 186.77 99.5985 186.173C99.8869 185.573 100.288 185.106 100.802 184.771C101.319 184.433 101.922 184.264 102.611 184.264C103.009 184.264 103.402 184.33 103.79 184.463C104.177 184.596 104.53 184.811 104.849 185.109C105.167 185.404 105.42 185.795 105.609 186.283C105.798 186.77 105.893 187.37 105.893 188.082V188.58H100.006V187.565H104.699C104.699 187.134 104.613 186.75 104.441 186.412C104.272 186.074 104.03 185.807 103.715 185.612C103.403 185.416 103.036 185.318 102.611 185.318C102.144 185.318 101.74 185.434 101.398 185.666C101.06 185.895 100.8 186.193 100.618 186.561C100.435 186.929 100.344 187.323 100.344 187.744V188.42C100.344 188.997 100.444 189.486 100.643 189.887C100.845 190.285 101.125 190.588 101.483 190.797C101.841 191.002 102.257 191.105 102.731 191.105C103.039 191.105 103.317 191.062 103.566 190.976C103.818 190.886 104.035 190.754 104.217 190.578C104.399 190.399 104.54 190.177 104.64 189.912L105.773 190.23C105.654 190.615 105.453 190.953 105.172 191.244C104.89 191.533 104.542 191.758 104.128 191.92C103.713 192.08 103.248 192.159 102.731 192.159ZM110.78 192.159C110.064 192.159 109.447 191.99 108.93 191.652C108.413 191.314 108.015 190.848 107.737 190.255C107.459 189.662 107.319 188.984 107.319 188.222C107.319 187.446 107.462 186.762 107.747 186.168C108.035 185.572 108.436 185.106 108.95 184.771C109.467 184.433 110.07 184.264 110.76 184.264C111.297 184.264 111.781 184.364 112.211 184.562C112.642 184.761 112.995 185.04 113.27 185.398C113.546 185.756 113.716 186.173 113.782 186.651H112.609C112.52 186.303 112.321 185.994 112.013 185.726C111.708 185.454 111.297 185.318 110.78 185.318C110.322 185.318 109.921 185.437 109.577 185.676C109.235 185.911 108.968 186.245 108.776 186.675C108.587 187.103 108.493 187.605 108.493 188.182C108.493 188.772 108.586 189.286 108.771 189.723C108.96 190.161 109.225 190.5 109.567 190.742C109.911 190.984 110.316 191.105 110.78 191.105C111.085 191.105 111.361 191.052 111.61 190.946C111.858 190.84 112.069 190.688 112.241 190.489C112.414 190.29 112.536 190.051 112.609 189.773H113.782C113.716 190.223 113.552 190.629 113.29 190.991C113.032 191.349 112.689 191.634 112.261 191.846C111.837 192.055 111.343 192.159 110.78 192.159ZM120.091 192V185.438H118.063C117.606 185.438 117.246 185.544 116.984 185.756C116.722 185.968 116.591 186.259 116.591 186.631C116.591 186.995 116.709 187.282 116.944 187.491C117.183 187.7 117.51 187.804 117.924 187.804H120.39V188.898H117.924C117.407 188.898 116.961 188.807 116.586 188.624C116.212 188.442 115.924 188.182 115.721 187.844C115.519 187.502 115.418 187.098 115.418 186.631C115.418 186.16 115.524 185.756 115.736 185.418C115.948 185.08 116.252 184.819 116.646 184.637C117.044 184.455 117.516 184.364 118.063 184.364H121.205V192H120.091ZM115.001 192L117.168 188.202H118.441L116.273 192H115.001ZM129.365 184.364V190.906H130.439V194.466H129.265V192H123.359V184.364H124.532V190.906H128.191V184.364H129.365ZM135.365 192.159C134.63 192.159 133.995 191.997 133.461 191.672C132.931 191.344 132.522 190.886 132.233 190.3C131.948 189.71 131.806 189.024 131.806 188.241C131.806 187.459 131.948 186.77 132.233 186.173C132.522 185.573 132.923 185.106 133.436 184.771C133.953 184.433 134.557 184.264 135.246 184.264C135.644 184.264 136.037 184.33 136.424 184.463C136.812 184.596 137.165 184.811 137.483 185.109C137.801 185.404 138.055 185.795 138.244 186.283C138.433 186.77 138.527 187.37 138.527 188.082V188.58H132.641V187.565H137.334C137.334 187.134 137.248 186.75 137.076 186.412C136.907 186.074 136.665 185.807 136.35 185.612C136.038 185.416 135.67 185.318 135.246 185.318C134.779 185.318 134.374 185.434 134.033 185.666C133.695 185.895 133.435 186.193 133.252 186.561C133.07 186.929 132.979 187.323 132.979 187.744V188.42C132.979 188.997 133.078 189.486 133.277 189.887C133.48 190.285 133.76 190.588 134.118 190.797C134.475 191.002 134.891 191.105 135.365 191.105C135.674 191.105 135.952 191.062 136.201 190.976C136.453 190.886 136.67 190.754 136.852 190.578C137.034 190.399 137.175 190.177 137.275 189.912L138.408 190.23C138.289 190.615 138.088 190.953 137.806 191.244C137.525 191.533 137.177 191.758 136.762 191.92C136.348 192.08 135.882 192.159 135.365 192.159ZM140.312 192V184.364H143.434C144.256 184.364 144.909 184.549 145.393 184.92C145.877 185.292 146.119 185.782 146.119 186.392C146.119 186.856 145.981 187.216 145.706 187.471C145.431 187.723 145.078 187.893 144.647 187.983C144.929 188.023 145.203 188.122 145.468 188.281C145.736 188.44 145.958 188.659 146.134 188.938C146.31 189.213 146.397 189.551 146.397 189.952C146.397 190.343 146.298 190.692 146.099 191.001C145.9 191.309 145.615 191.553 145.244 191.732C144.873 191.911 144.429 192 143.912 192H140.312ZM141.426 190.926H143.912C144.316 190.926 144.632 190.83 144.861 190.638C145.09 190.446 145.204 190.184 145.204 189.852C145.204 189.458 145.09 189.148 144.861 188.923C144.632 188.694 144.316 188.58 143.912 188.58H141.426V190.926ZM141.426 187.565H143.434C143.749 187.565 144.019 187.522 144.245 187.436C144.47 187.347 144.642 187.221 144.762 187.058C144.884 186.893 144.946 186.697 144.946 186.472C144.946 186.15 144.811 185.898 144.543 185.716C144.275 185.53 143.905 185.438 143.434 185.438H141.426V187.565Z" fill="white"/>
    </g>
    <g filter="url(#filter2_i_636_738)">
        <path d="M117.477 170.795C114.693 170.777 111.975 170.294 109.324 169.347C106.672 168.381 104.286 166.818 102.165 164.659C100.044 162.481 98.358 159.593 97.108 155.994C95.858 152.377 95.2424 147.898 95.2614 142.557C95.2614 137.576 95.7917 133.134 96.8523 129.233C97.9129 125.331 99.4375 122.036 101.426 119.347C103.415 116.638 105.811 114.574 108.614 113.153C111.436 111.733 114.589 111.023 118.074 111.023C121.729 111.023 124.968 111.742 127.79 113.182C130.631 114.621 132.922 116.591 134.665 119.091C136.407 121.572 137.487 124.375 137.903 127.5H127.534C127.004 125.265 125.915 123.485 124.267 122.159C122.638 120.814 120.574 120.142 118.074 120.142C114.04 120.142 110.934 121.894 108.756 125.398C106.597 128.902 105.508 133.712 105.489 139.83H105.886C106.814 138.163 108.017 136.733 109.494 135.54C110.972 134.347 112.638 133.428 114.494 132.784C116.369 132.121 118.348 131.79 120.432 131.79C123.841 131.79 126.9 132.604 129.608 134.233C132.335 135.862 134.494 138.106 136.085 140.966C137.676 143.807 138.462 147.064 138.443 150.739C138.462 154.564 137.591 158.002 135.83 161.051C134.068 164.081 131.616 166.468 128.472 168.21C125.328 169.953 121.663 170.814 117.477 170.795ZM117.42 162.273C119.485 162.273 121.331 161.771 122.96 160.767C124.589 159.763 125.877 158.409 126.824 156.705C127.771 155 128.235 153.087 128.216 150.966C128.235 148.883 127.78 146.998 126.852 145.312C125.943 143.627 124.684 142.292 123.074 141.307C121.464 140.322 119.627 139.83 117.562 139.83C116.028 139.83 114.598 140.123 113.273 140.71C111.947 141.297 110.792 142.112 109.807 143.153C108.822 144.176 108.045 145.369 107.477 146.733C106.928 148.078 106.644 149.517 106.625 151.051C106.644 153.078 107.117 154.943 108.045 156.648C108.973 158.352 110.252 159.716 111.881 160.739C113.509 161.761 115.356 162.273 117.42 162.273Z" fill="white"/>
    </g>
    <path d="M47.8608 242V233.273H51.2017C51.8324 233.273 52.3565 233.372 52.7741 233.571C53.1946 233.767 53.5085 234.036 53.7159 234.376C53.9261 234.717 54.0312 235.104 54.0312 235.536C54.0312 235.891 53.9631 236.195 53.8267 236.447C53.6903 236.697 53.5071 236.901 53.277 237.057C53.0469 237.213 52.7898 237.325 52.5057 237.393V237.479C52.8153 237.496 53.1122 237.591 53.3963 237.764C53.6832 237.935 53.9176 238.176 54.0994 238.489C54.2813 238.801 54.3722 239.179 54.3722 239.622C54.3722 240.074 54.2628 240.48 54.044 240.841C53.8253 241.199 53.4957 241.482 53.0554 241.689C52.6151 241.896 52.0611 242 51.3935 242H47.8608ZM49.4418 240.679H51.142C51.7159 240.679 52.1293 240.57 52.3821 240.351C52.6378 240.129 52.7656 239.845 52.7656 239.499C52.7656 239.24 52.7017 239.007 52.5739 238.8C52.446 238.589 52.2642 238.425 52.0284 238.305C51.7926 238.183 51.5114 238.122 51.1847 238.122H49.4418V240.679ZM49.4418 236.984H51.0057C51.2784 236.984 51.5241 236.935 51.7429 236.835C51.9616 236.733 52.1335 236.589 52.2585 236.405C52.3864 236.217 52.4503 235.996 52.4503 235.74C52.4503 235.402 52.331 235.124 52.0923 234.905C51.8565 234.686 51.5057 234.577 51.0398 234.577H49.4418V236.984ZM58.5344 242.128C57.881 242.128 57.32 241.984 56.8512 241.697C56.3853 241.411 56.0259 241.014 55.7731 240.509C55.5231 240 55.3981 239.415 55.3981 238.753C55.3981 238.088 55.5259 237.501 55.7816 236.993C56.0373 236.482 56.3981 236.084 56.864 235.8C57.3327 235.513 57.8867 235.369 58.5259 235.369C59.0572 235.369 59.5273 235.467 59.9364 235.663C60.3484 235.857 60.6765 236.131 60.9208 236.486C61.1651 236.838 61.3043 237.25 61.3384 237.722H59.864C59.8043 237.406 59.6623 237.143 59.4379 236.933C59.2163 236.72 58.9194 236.614 58.5472 236.614C58.2319 236.614 57.9549 236.699 57.7163 236.869C57.4776 237.037 57.2915 237.278 57.158 237.594C57.0273 237.909 56.962 238.287 56.962 238.727C56.962 239.173 57.0273 239.557 57.158 239.878C57.2887 240.196 57.4719 240.442 57.7077 240.615C57.9464 240.786 58.2262 240.871 58.5472 240.871C58.7745 240.871 58.9776 240.828 59.1566 240.743C59.3384 240.655 59.4904 240.528 59.6126 240.364C59.7347 240.199 59.8185 239.999 59.864 239.763H61.3384C61.3015 240.226 61.1651 240.636 60.9293 240.994C60.6935 241.349 60.3725 241.628 59.9663 241.83C59.56 242.028 59.0827 242.128 58.5344 242.128ZM65.5028 242.128C64.8466 242.128 64.2798 241.991 63.8026 241.719C63.3281 241.443 62.9631 241.054 62.7074 240.551C62.4517 240.045 62.3239 239.45 62.3239 238.766C62.3239 238.092 62.4517 237.501 62.7074 236.993C62.9659 236.482 63.3267 236.084 63.7898 235.8C64.2528 235.513 64.7969 235.369 65.4219 235.369C65.8253 235.369 66.206 235.435 66.5639 235.565C66.9247 235.693 67.2429 235.892 67.5185 236.162C67.7969 236.432 68.0156 236.776 68.1747 237.193C68.3338 237.608 68.4134 238.102 68.4134 238.676V239.149H63.0483V238.109H66.9347C66.9318 237.814 66.8679 237.551 66.7429 237.321C66.6179 237.088 66.4432 236.905 66.2188 236.771C65.9972 236.638 65.7386 236.571 65.4432 236.571C65.1278 236.571 64.8509 236.648 64.6122 236.801C64.3736 236.952 64.1875 237.151 64.054 237.398C63.9233 237.642 63.8565 237.911 63.8537 238.203V239.111C63.8537 239.491 63.9233 239.818 64.0625 240.091C64.2017 240.361 64.3963 240.568 64.6463 240.713C64.8963 240.855 65.1889 240.926 65.5241 240.926C65.7486 240.926 65.9517 240.895 66.1335 240.832C66.3153 240.767 66.473 240.672 66.6065 240.547C66.7401 240.422 66.8409 240.267 66.9091 240.082L68.3494 240.244C68.2585 240.625 68.0852 240.957 67.8295 241.241C67.5767 241.523 67.2528 241.741 66.858 241.898C66.4631 242.051 66.0114 242.128 65.5028 242.128ZM75.6651 244.224V233.273H77.212V244.224H75.6651ZM75.6651 242.128C75.185 242.128 74.7461 242.047 74.3484 241.885C73.9506 241.723 73.6069 241.493 73.3171 241.195C73.0302 240.896 72.8072 240.541 72.6481 240.129C72.4918 239.714 72.4137 239.256 72.4137 238.753C72.4137 238.25 72.4918 237.791 72.6481 237.376C72.8072 236.962 73.0302 236.605 73.3171 236.307C73.6069 236.006 73.9506 235.774 74.3484 235.612C74.7461 235.45 75.185 235.369 75.6651 235.369H75.9933V242.128H75.6651ZM75.6651 240.884H75.8569V236.614H75.6651C75.3924 236.614 75.1509 236.67 74.9407 236.784C74.7333 236.895 74.5586 237.05 74.4165 237.249C74.2773 237.445 74.1708 237.672 74.0969 237.93C74.0259 238.186 73.9904 238.46 73.9904 238.753C73.9904 239.142 74.0543 239.499 74.1822 239.822C74.31 240.143 74.4975 240.401 74.7447 240.594C74.9947 240.787 75.3015 240.884 75.6651 240.884ZM77.212 242.128H76.8839V235.369H77.212C77.6921 235.369 78.131 235.45 78.5288 235.612C78.9265 235.774 79.2688 236.006 79.5558 236.307C79.8455 236.605 80.0685 236.962 80.2248 237.376C80.3839 237.791 80.4634 238.25 80.4634 238.753C80.4634 239.256 80.3839 239.714 80.2248 240.129C80.0685 240.541 79.8455 240.896 79.5558 241.195C79.2688 241.493 78.9265 241.723 78.5288 241.885C78.131 242.047 77.6921 242.128 77.212 242.128ZM77.212 240.884C77.4876 240.884 77.729 240.828 77.9364 240.717C78.1438 240.607 78.3171 240.453 78.4563 240.257C78.5984 240.061 78.7049 239.835 78.7759 239.58C78.8469 239.321 78.8825 239.045 78.8825 238.753C78.8825 238.364 78.82 238.007 78.695 237.683C78.57 237.359 78.3825 237.101 78.1325 236.908C77.8853 236.712 77.5785 236.614 77.212 236.614H77.0202V240.884H77.212ZM83.2525 239.912L85.8732 235.455H87.4585V242H85.967V237.538L83.3548 242H81.7653V235.455H83.2525V239.912ZM88.5909 242L88.5824 240.73H88.8082C88.9787 240.73 89.1222 240.692 89.2386 240.615C89.3551 240.538 89.4517 240.411 89.5284 240.232C89.6051 240.05 89.6648 239.805 89.7074 239.499C89.75 239.192 89.7798 238.81 89.7969 238.352L89.9119 235.455H94.6847V242H93.1932V236.72H91.3139L91.2116 238.83C91.1861 239.375 91.125 239.848 91.0284 240.249C90.9347 240.646 90.8011 240.974 90.6278 241.233C90.4574 241.491 90.2429 241.685 89.9844 241.812C89.7259 241.938 89.4205 242 89.0682 242H88.5909ZM97.282 237.585H99.2124C100.048 237.585 100.694 237.788 101.151 238.195C101.609 238.601 101.839 239.134 101.842 239.793C101.839 240.222 101.734 240.602 101.526 240.935C101.322 241.267 101.023 241.528 100.631 241.719C100.242 241.906 99.7692 242 99.2124 242H96.2379V235.455H97.7251V240.734H99.2124C99.5476 240.734 99.8232 240.649 100.039 240.479C100.255 240.305 100.363 240.084 100.363 239.814C100.363 239.53 100.255 239.298 100.039 239.119C99.8232 238.94 99.5476 238.851 99.2124 238.851H97.282V237.585ZM106.931 240.206L108.874 235.455H110.118L107.472 242H106.394L103.807 235.455H105.039L106.931 240.206ZM104.651 235.455V242H103.164V235.455H104.651ZM109.275 242V235.455H110.749V242H109.275ZM113.348 237.585H115.279C116.114 237.585 116.76 237.788 117.218 238.195C117.675 238.601 117.905 239.134 117.908 239.793C117.905 240.222 117.8 240.602 117.593 240.935C117.388 241.267 117.09 241.528 116.698 241.719C116.309 241.906 115.836 242 115.279 242H112.304V235.455H113.792V240.734H115.279C115.614 240.734 115.89 240.649 116.105 240.479C116.321 240.305 116.429 240.084 116.429 239.814C116.429 239.53 116.321 239.298 116.105 239.119C115.89 238.94 115.614 238.851 115.279 238.851H113.348V237.585ZM118.722 242V235.455H120.265V242H118.722ZM126.319 239.912L128.94 235.455H130.525V242H129.033V237.538L126.421 242H124.832V235.455H126.319V239.912ZM137.941 242.128C137.287 242.128 136.726 241.984 136.257 241.697C135.792 241.411 135.432 241.014 135.179 240.509C134.929 240 134.804 239.415 134.804 238.753C134.804 238.088 134.932 237.501 135.188 236.993C135.444 236.482 135.804 236.084 136.27 235.8C136.739 235.513 137.293 235.369 137.932 235.369C138.463 235.369 138.934 235.467 139.343 235.663C139.755 235.857 140.083 236.131 140.327 236.486C140.571 236.838 140.711 237.25 140.745 237.722H139.27C139.211 237.406 139.069 237.143 138.844 236.933C138.623 236.72 138.326 236.614 137.953 236.614C137.638 236.614 137.361 236.699 137.123 236.869C136.884 237.037 136.698 237.278 136.564 237.594C136.434 237.909 136.368 238.287 136.368 238.727C136.368 239.173 136.434 239.557 136.564 239.878C136.695 240.196 136.878 240.442 137.114 240.615C137.353 240.786 137.632 240.871 137.953 240.871C138.181 240.871 138.384 240.828 138.563 240.743C138.745 240.655 138.897 240.528 139.019 240.364C139.141 240.199 139.225 239.999 139.27 239.763H140.745C140.708 240.226 140.571 240.636 140.336 240.994C140.1 241.349 139.779 241.628 139.373 241.83C138.966 242.028 138.489 242.128 137.941 242.128ZM144.909 242.128C144.253 242.128 143.686 241.991 143.209 241.719C142.734 241.443 142.369 241.054 142.114 240.551C141.858 240.045 141.73 239.45 141.73 238.766C141.73 238.092 141.858 237.501 142.114 236.993C142.372 236.482 142.733 236.084 143.196 235.8C143.659 235.513 144.203 235.369 144.828 235.369C145.232 235.369 145.612 235.435 145.97 235.565C146.331 235.693 146.649 235.892 146.925 236.162C147.203 236.432 147.422 236.776 147.581 237.193C147.74 237.608 147.82 238.102 147.82 238.676V239.149H142.455V238.109H146.341C146.338 237.814 146.274 237.551 146.149 237.321C146.024 237.088 145.849 236.905 145.625 236.771C145.403 236.638 145.145 236.571 144.849 236.571C144.534 236.571 144.257 236.648 144.018 236.801C143.78 236.952 143.594 237.151 143.46 237.398C143.33 237.642 143.263 237.911 143.26 238.203V239.111C143.26 239.491 143.33 239.818 143.469 240.091C143.608 240.361 143.803 240.568 144.053 240.713C144.303 240.855 144.595 240.926 144.93 240.926C145.155 240.926 145.358 240.895 145.54 240.832C145.722 240.767 145.879 240.672 146.013 240.547C146.146 240.422 146.247 240.267 146.315 240.082L147.756 240.244C147.665 240.625 147.491 240.957 147.236 241.241C146.983 241.523 146.659 241.741 146.264 241.898C145.869 242.051 145.418 242.128 144.909 242.128ZM149.125 244.455V235.455H150.642V236.537H150.731C150.811 236.378 150.923 236.209 151.068 236.03C151.213 235.848 151.409 235.693 151.656 235.565C151.903 235.435 152.218 235.369 152.602 235.369C153.108 235.369 153.564 235.499 153.97 235.757C154.379 236.013 154.703 236.392 154.941 236.895C155.183 237.395 155.304 238.009 155.304 238.736C155.304 239.455 155.186 240.065 154.95 240.568C154.714 241.071 154.393 241.455 153.987 241.719C153.581 241.983 153.12 242.115 152.606 242.115C152.231 242.115 151.92 242.053 151.673 241.928C151.426 241.803 151.227 241.652 151.076 241.476C150.929 241.297 150.814 241.128 150.731 240.969H150.667V244.455H149.125ZM150.637 238.727C150.637 239.151 150.697 239.521 150.816 239.839C150.939 240.158 151.113 240.406 151.341 240.585C151.571 240.761 151.849 240.849 152.176 240.849C152.517 240.849 152.802 240.759 153.032 240.577C153.262 240.392 153.436 240.141 153.552 239.822C153.672 239.501 153.731 239.136 153.731 238.727C153.731 238.321 153.673 237.96 153.556 237.645C153.44 237.33 153.267 237.082 153.037 236.903C152.806 236.724 152.52 236.635 152.176 236.635C151.846 236.635 151.566 236.722 151.336 236.895C151.106 237.068 150.931 237.311 150.812 237.624C150.696 237.936 150.637 238.304 150.637 238.727ZM158.112 239.912L160.733 235.455H162.318V242H160.826V237.538L158.214 242H156.625V235.455H158.112V239.912ZM165.786 242.132C165.371 242.132 164.997 242.058 164.665 241.911C164.335 241.76 164.074 241.538 163.881 241.246C163.69 240.953 163.595 240.592 163.595 240.163C163.595 239.794 163.663 239.489 163.8 239.247C163.936 239.006 164.122 238.812 164.358 238.668C164.594 238.523 164.859 238.413 165.155 238.339C165.453 238.263 165.761 238.207 166.08 238.173C166.463 238.134 166.774 238.098 167.013 238.067C167.251 238.033 167.425 237.982 167.533 237.913C167.643 237.842 167.699 237.733 167.699 237.585V237.56C167.699 237.239 167.604 236.99 167.413 236.814C167.223 236.638 166.949 236.55 166.591 236.55C166.213 236.55 165.913 236.632 165.692 236.797C165.473 236.962 165.325 237.156 165.249 237.381L163.808 237.176C163.922 236.778 164.109 236.446 164.371 236.179C164.632 235.909 164.952 235.707 165.33 235.574C165.707 235.438 166.125 235.369 166.582 235.369C166.898 235.369 167.212 235.406 167.524 235.48C167.837 235.554 168.122 235.676 168.381 235.847C168.639 236.014 168.847 236.243 169.003 236.533C169.162 236.822 169.241 237.185 169.241 237.619V242H167.759V241.101H167.707C167.614 241.283 167.482 241.453 167.311 241.612C167.143 241.768 166.932 241.895 166.676 241.991C166.423 242.085 166.126 242.132 165.786 242.132ZM166.186 240.999C166.496 240.999 166.764 240.937 166.991 240.815C167.219 240.69 167.393 240.526 167.516 240.321C167.641 240.116 167.703 239.893 167.703 239.652V238.881C167.655 238.92 167.572 238.957 167.456 238.991C167.342 239.026 167.214 239.055 167.072 239.081C166.93 239.107 166.79 239.129 166.651 239.149C166.511 239.169 166.391 239.186 166.288 239.2C166.058 239.232 165.852 239.283 165.67 239.354C165.489 239.425 165.345 239.524 165.24 239.652C165.135 239.777 165.082 239.939 165.082 240.138C165.082 240.422 165.186 240.636 165.393 240.781C165.601 240.926 165.865 240.999 166.186 240.999ZM170.341 242L170.332 240.73H170.558C170.729 240.73 170.872 240.692 170.989 240.615C171.105 240.538 171.202 240.411 171.278 240.232C171.355 240.05 171.415 239.805 171.457 239.499C171.5 239.192 171.53 238.81 171.547 238.352L171.662 235.455H176.435V242H174.943V236.72H173.064L172.962 238.83C172.936 239.375 172.875 239.848 172.778 240.249C172.685 240.646 172.551 240.974 172.378 241.233C172.207 241.491 171.993 241.685 171.734 241.812C171.476 241.938 171.17 242 170.818 242H170.341ZM179.032 237.585H180.962C181.798 237.585 182.444 237.788 182.901 238.195C183.359 238.601 183.589 239.134 183.592 239.793C183.589 240.222 183.484 240.602 183.276 240.935C183.072 241.267 182.773 241.528 182.381 241.719C181.992 241.906 181.519 242 180.962 242H177.988V235.455H179.475V240.734H180.962C181.298 240.734 181.573 240.649 181.789 240.479C182.005 240.305 182.113 240.084 182.113 239.814C182.113 239.53 182.005 239.298 181.789 239.119C181.573 238.94 181.298 238.851 180.962 238.851H179.032V237.585ZM184.406 242V235.455H185.948V242H184.406Z" fill="white"/>
    <path d="M39.008 65V42.6H48.224C50.208 42.6 51.904 42.92 53.312 43.56C54.7413 44.2 55.84 45.1173 56.608 46.312C57.376 47.5067 57.76 48.9253 57.76 50.568C57.76 52.2107 57.376 53.6293 56.608 54.824C55.84 56.0187 54.7413 56.936 53.312 57.576C51.904 58.216 50.208 58.536 48.224 58.536H41.312L43.168 56.584V65H39.008ZM43.168 57.032L41.312 55.016H48.032C49.8667 55.016 51.2427 54.632 52.16 53.864C53.0987 53.0747 53.568 51.976 53.568 50.568C53.568 49.1387 53.0987 48.04 52.16 47.272C51.2427 46.504 49.8667 46.12 48.032 46.12H41.312L43.168 44.072V57.032ZM61.374 65V47.912H65.182V52.616L64.734 51.24C65.246 50.088 66.046 49.2133 67.134 48.616C68.2433 48.0187 69.6193 47.72 71.262 47.72V51.528C71.0913 51.4853 70.9313 51.464 70.782 51.464C70.6327 51.4427 70.4833 51.432 70.334 51.432C68.8193 51.432 67.614 51.88 66.718 52.776C65.822 53.6507 65.374 54.9627 65.374 56.712V65H61.374ZM82.531 65.224C80.6323 65.224 78.9683 64.8507 77.539 64.104C76.131 63.336 75.0323 62.2907 74.243 60.968C73.475 59.6453 73.091 58.1413 73.091 56.456C73.091 54.7493 73.4643 53.2453 74.211 51.944C74.979 50.6213 76.0243 49.5867 77.347 48.84C78.691 48.0933 80.2163 47.72 81.923 47.72C83.587 47.72 85.0697 48.0827 86.371 48.808C87.6723 49.5333 88.6963 50.5573 89.443 51.88C90.1897 53.2027 90.563 54.76 90.563 56.552C90.563 56.7227 90.5523 56.9147 90.531 57.128C90.531 57.3413 90.5203 57.544 90.499 57.736H76.259V55.08H88.387L86.819 55.912C86.8403 54.9307 86.6377 54.0667 86.211 53.32C85.7843 52.5733 85.1977 51.9867 84.451 51.56C83.7257 51.1333 82.883 50.92 81.923 50.92C80.9417 50.92 80.0777 51.1333 79.331 51.56C78.6057 51.9867 78.0297 52.584 77.603 53.352C77.1977 54.0987 76.995 54.984 76.995 56.008V56.648C76.995 57.672 77.2297 58.5787 77.699 59.368C78.1683 60.1573 78.8297 60.7653 79.683 61.192C80.5363 61.6187 81.5177 61.832 82.627 61.832C83.587 61.832 84.451 61.6827 85.219 61.384C85.987 61.0853 86.6697 60.616 87.267 59.976L89.411 62.44C88.643 63.336 87.6723 64.0293 86.499 64.52C85.347 64.9893 84.0243 65.224 82.531 65.224ZM115.973 47.72C117.339 47.72 118.544 47.9867 119.589 48.52C120.656 49.0533 121.488 49.8747 122.085 50.984C122.683 52.072 122.981 53.48 122.981 55.208V65H118.981V55.72C118.981 54.2053 118.651 53.0747 117.989 52.328C117.328 51.5813 116.379 51.208 115.141 51.208C114.267 51.208 113.488 51.4 112.805 51.784C112.144 52.168 111.621 52.7333 111.237 53.48C110.875 54.2267 110.693 55.176 110.693 56.328V65H106.693V55.72C106.693 54.2053 106.363 53.0747 105.701 52.328C105.04 51.5813 104.091 51.208 102.853 51.208C101.979 51.208 101.2 51.4 100.517 51.784C99.8559 52.168 99.3333 52.7333 98.9493 53.48C98.5866 54.2267 98.4053 55.176 98.4053 56.328V65H94.4053V47.912H98.2133V52.456L97.5413 51.112C98.1173 50.0027 98.9493 49.16 100.037 48.584C101.147 48.008 102.405 47.72 103.813 47.72C105.413 47.72 106.8 48.1147 107.973 48.904C109.168 49.6933 109.957 50.888 110.341 52.488L108.773 51.944C109.328 50.664 110.245 49.64 111.525 48.872C112.805 48.104 114.288 47.72 115.973 47.72ZM128.093 65V47.912H132.093V65H128.093ZM130.109 45.096C129.362 45.096 128.743 44.8613 128.253 44.392C127.783 43.9227 127.549 43.3573 127.549 42.696C127.549 42.0133 127.783 41.448 128.253 41C128.743 40.5307 129.362 40.296 130.109 40.296C130.855 40.296 131.463 40.52 131.933 40.968C132.423 41.3947 132.669 41.9387 132.669 42.6C132.669 43.304 132.434 43.9013 131.965 44.392C131.495 44.8613 130.877 45.096 130.109 45.096ZM144.575 65.224C143.124 65.224 141.844 64.9573 140.735 64.424C139.625 63.8693 138.761 63.0373 138.143 61.928C137.524 60.7973 137.215 59.3787 137.215 57.672V47.912H141.215V57.128C141.215 58.664 141.556 59.816 142.239 60.584C142.943 61.3307 143.935 61.704 145.215 61.704C146.153 61.704 146.964 61.512 147.647 61.128C148.351 60.744 148.895 60.168 149.279 59.4C149.684 58.632 149.887 57.6827 149.887 56.552V47.912H153.887V65H150.079V60.392L150.751 61.8C150.175 62.9093 149.332 63.7627 148.223 64.36C147.113 64.936 145.897 65.224 144.575 65.224ZM180.692 47.72C182.057 47.72 183.263 47.9867 184.308 48.52C185.375 49.0533 186.207 49.8747 186.804 50.984C187.401 52.072 187.7 53.48 187.7 55.208V65H183.7V55.72C183.7 54.2053 183.369 53.0747 182.708 52.328C182.047 51.5813 181.097 51.208 179.86 51.208C178.985 51.208 178.207 51.4 177.524 51.784C176.863 52.168 176.34 52.7333 175.956 53.48C175.593 54.2267 175.412 55.176 175.412 56.328V65H171.412V55.72C171.412 54.2053 171.081 53.0747 170.42 52.328C169.759 51.5813 168.809 51.208 167.572 51.208C166.697 51.208 165.919 51.4 165.236 51.784C164.575 52.168 164.052 52.7333 163.668 53.48C163.305 54.2267 163.124 55.176 163.124 56.328V65H159.124V47.912H162.932V52.456L162.26 51.112C162.836 50.0027 163.668 49.16 164.756 48.584C165.865 48.008 167.124 47.72 168.532 47.72C170.132 47.72 171.519 48.1147 172.692 48.904C173.887 49.6933 174.676 50.888 175.06 52.488L173.492 51.944C174.047 50.664 174.964 49.64 176.244 48.872C177.524 48.104 179.007 47.72 180.692 47.72Z" fill="white"/>
    <defs>
        <filter id="filter0_i_636_738" x="63" y="78.7" width="107" height="113.3" filterUnits="userSpaceOnUse" color-interpolation-filters="sRGB">
            <feFlood flood-opacity="0" result="BackgroundImageFix"/>
            <feBlend mode="normal" in="SourceGraphic" in2="BackgroundImageFix" result="shape"/>
            <feColorMatrix in="SourceAlpha" type="matrix" values="0 0 0 0 0 0 0 0 0 0 0 0 0 0 0 0 0 0 127 0" result="hardAlpha"/>
            <feOffset dy="-15"/>
            <feGaussianBlur stdDeviation="3.15"/>
            <feComposite in2="hardAlpha" operator="arithmetic" k2="-1" k3="1"/>
            <feColorMatrix type="matrix" values="0 0 0 0 0.0705882 0 0 0 0 0.388235 0 0 0 0 0.870588 0 0 0 0.29 0"/>
            <feBlend mode="normal" in2="shape" result="effect1_innerShadow_636_738"/>
        </filter>
        <filter id="filter1_i_636_738" x="87.2329" y="175.518" width="59.1646" height="18.9475" filterUnits="userSpaceOnUse" color-interpolation-filters="sRGB">
            <feFlood flood-opacity="0" result="BackgroundImageFix"/>
            <feBlend mode="normal" in="SourceGraphic" in2="BackgroundImageFix" result="shape"/>
            <feColorMatrix in="SourceAlpha" type="matrix" values="0 0 0 0 0 0 0 0 0 0 0 0 0 0 0 0 0 0 127 0" result="hardAlpha"/>
            <feOffset dy="-15"/>
            <feGaussianBlur stdDeviation="3.15"/>
            <feComposite in2="hardAlpha" operator="arithmetic" k2="-1" k3="1"/>
            <feColorMatrix type="matrix" values="0 0 0 0 0.0705882 0 0 0 0 0.388235 0 0 0 0 0.870588 0 0 0 0.29 0"/>
            <feBlend mode="normal" in2="shape" result="effect1_innerShadow_636_738"/>
        </filter>
        <filter id="filter2_i_636_738" x="95.2329" y="104.722" width="43.2388" height="66.1018" filterUnits="userSpaceOnUse" color-interpolation-filters="sRGB">
            <feFlood flood-opacity="0" result="BackgroundImageFix"/>
            <feBlend mode="normal" in="SourceGraphic" in2="BackgroundImageFix" result="shape"/>
            <feColorMatrix in="SourceAlpha" type="matrix" values="0 0 0 0 0 0 0 0 0 0 0 0 0 0 0 0 0 0 127 0" result="hardAlpha"/>
            <feOffset dy="-15"/>
            <feGaussianBlur stdDeviation="3.15"/>
            <feComposite in2="hardAlpha" operator="arithmetic" k2="-1" k3="1"/>
            <feColorMatrix type="matrix" values="0 0 0 0 0.0705882 0 0 0 0 0.388235 0 0 0 0 0.870588 0 0 0 0.29 0"/>
            <feBlend mode="normal" in2="shape" result="effect1_innerShadow_636_738"/>
        </filter>
    </defs>
</svg>
