<svg width="234" height="311" viewBox="0 0 234 311" fill="none" xmlns="http://www.w3.org/2000/svg">
    <rect width="234" height="311" fill="#1263DE"/>
    <g filter="url(#filter0_i_636_794)">
        <rect x="64.5" y="86.5" width="104" height="104" rx="13.5" stroke="white" stroke-width="3"/>
    </g>
    <rect x="77" y="170" width="80" height="31" fill="#1263DE"/>
    <g filter="url(#filter1_i_636_794)">
        <path d="M87.233 181.818H88.7045L92.1648 190.27H92.2841L95.7443 181.818H97.2159V192H96.0625V184.264H95.9631L92.7812 192H91.6676L88.4858 184.264H88.3864V192H87.233V181.818ZM102.731 192.159C101.995 192.159 101.36 191.997 100.827 191.672C100.296 191.344 99.8869 190.886 99.5985 190.3C99.3135 189.71 99.171 189.024 99.171 188.241C99.171 187.459 99.3135 186.77 99.5985 186.173C99.8869 185.573 100.288 185.106 100.802 184.771C101.319 184.433 101.922 184.264 102.611 184.264C103.009 184.264 103.402 184.33 103.79 184.463C104.177 184.596 104.53 184.811 104.849 185.109C105.167 185.404 105.42 185.795 105.609 186.283C105.798 186.77 105.893 187.37 105.893 188.082V188.58H100.006V187.565H104.699C104.699 187.134 104.613 186.75 104.441 186.412C104.272 186.074 104.03 185.807 103.715 185.612C103.403 185.416 103.036 185.318 102.611 185.318C102.144 185.318 101.74 185.434 101.398 185.666C101.06 185.895 100.8 186.193 100.618 186.561C100.435 186.929 100.344 187.323 100.344 187.744V188.42C100.344 188.997 100.444 189.486 100.643 189.887C100.845 190.285 101.125 190.588 101.483 190.797C101.841 191.002 102.257 191.105 102.731 191.105C103.039 191.105 103.317 191.062 103.566 190.976C103.818 190.886 104.035 190.754 104.217 190.578C104.399 190.399 104.54 190.177 104.64 189.912L105.773 190.23C105.654 190.615 105.453 190.953 105.172 191.244C104.89 191.533 104.542 191.758 104.128 191.92C103.713 192.08 103.248 192.159 102.731 192.159ZM110.78 192.159C110.064 192.159 109.447 191.99 108.93 191.652C108.413 191.314 108.015 190.848 107.737 190.255C107.459 189.662 107.319 188.984 107.319 188.222C107.319 187.446 107.462 186.762 107.747 186.168C108.035 185.572 108.436 185.106 108.95 184.771C109.467 184.433 110.07 184.264 110.76 184.264C111.297 184.264 111.781 184.364 112.211 184.562C112.642 184.761 112.995 185.04 113.27 185.398C113.546 185.756 113.716 186.173 113.782 186.651H112.609C112.52 186.303 112.321 185.994 112.013 185.726C111.708 185.454 111.297 185.318 110.78 185.318C110.322 185.318 109.921 185.437 109.577 185.676C109.235 185.911 108.968 186.245 108.776 186.675C108.587 187.103 108.493 187.605 108.493 188.182C108.493 188.772 108.586 189.286 108.771 189.723C108.96 190.161 109.225 190.5 109.567 190.742C109.911 190.984 110.316 191.105 110.78 191.105C111.085 191.105 111.361 191.052 111.61 190.946C111.858 190.84 112.069 190.688 112.241 190.489C112.414 190.29 112.536 190.051 112.609 189.773H113.782C113.716 190.223 113.552 190.629 113.29 190.991C113.032 191.349 112.689 191.634 112.261 191.846C111.837 192.055 111.343 192.159 110.78 192.159ZM120.091 192V185.438H118.063C117.606 185.438 117.246 185.544 116.984 185.756C116.722 185.968 116.591 186.259 116.591 186.631C116.591 186.995 116.709 187.282 116.944 187.491C117.183 187.7 117.51 187.804 117.924 187.804H120.39V188.898H117.924C117.407 188.898 116.961 188.807 116.586 188.624C116.212 188.442 115.924 188.182 115.721 187.844C115.519 187.502 115.418 187.098 115.418 186.631C115.418 186.16 115.524 185.756 115.736 185.418C115.948 185.08 116.252 184.819 116.646 184.637C117.044 184.455 117.516 184.364 118.063 184.364H121.205V192H120.091ZM115.001 192L117.168 188.202H118.441L116.273 192H115.001ZM129.365 184.364V190.906H130.439V194.466H129.265V192H123.359V184.364H124.532V190.906H128.191V184.364H129.365ZM135.365 192.159C134.63 192.159 133.995 191.997 133.461 191.672C132.931 191.344 132.522 190.886 132.233 190.3C131.948 189.71 131.806 189.024 131.806 188.241C131.806 187.459 131.948 186.77 132.233 186.173C132.522 185.573 132.923 185.106 133.436 184.771C133.953 184.433 134.557 184.264 135.246 184.264C135.644 184.264 136.037 184.33 136.424 184.463C136.812 184.596 137.165 184.811 137.483 185.109C137.801 185.404 138.055 185.795 138.244 186.283C138.433 186.77 138.527 187.37 138.527 188.082V188.58H132.641V187.565H137.334C137.334 187.134 137.248 186.75 137.076 186.412C136.907 186.074 136.665 185.807 136.35 185.612C136.038 185.416 135.67 185.318 135.246 185.318C134.779 185.318 134.374 185.434 134.033 185.666C133.695 185.895 133.435 186.193 133.252 186.561C133.07 186.929 132.979 187.323 132.979 187.744V188.42C132.979 188.997 133.078 189.486 133.277 189.887C133.48 190.285 133.76 190.588 134.118 190.797C134.475 191.002 134.891 191.105 135.365 191.105C135.674 191.105 135.952 191.062 136.201 190.976C136.453 190.886 136.67 190.754 136.852 190.578C137.034 190.399 137.175 190.177 137.275 189.912L138.408 190.23C138.289 190.615 138.088 190.953 137.806 191.244C137.525 191.533 137.177 191.758 136.762 191.92C136.348 192.08 135.882 192.159 135.365 192.159ZM140.312 192V184.364H143.434C144.256 184.364 144.909 184.549 145.393 184.92C145.877 185.292 146.119 185.782 146.119 186.392C146.119 186.856 145.981 187.216 145.706 187.471C145.431 187.723 145.078 187.893 144.647 187.983C144.929 188.023 145.203 188.122 145.468 188.281C145.736 188.44 145.958 188.659 146.134 188.938C146.31 189.213 146.397 189.551 146.397 189.952C146.397 190.343 146.298 190.692 146.099 191.001C145.9 191.309 145.615 191.553 145.244 191.732C144.873 191.911 144.429 192 143.912 192H140.312ZM141.426 190.926H143.912C144.316 190.926 144.632 190.83 144.861 190.638C145.09 190.446 145.204 190.184 145.204 189.852C145.204 189.458 145.09 189.148 144.861 188.923C144.632 188.694 144.316 188.58 143.912 188.58H141.426V190.926ZM141.426 187.565H143.434C143.749 187.565 144.019 187.522 144.245 187.436C144.47 187.347 144.642 187.221 144.762 187.058C144.884 186.893 144.946 186.697 144.946 186.472C144.946 186.15 144.811 185.898 144.543 185.716C144.275 185.53 143.905 185.438 143.434 185.438H141.426V187.565Z" fill="white"/>
    </g>
    <g filter="url(#filter2_i_636_794)">
        <path d="M100.835 111.818V170H90.2955V122.074H89.9545L76.3466 130.767V121.108L90.8068 111.818H100.835ZM115.608 170V162.386L135.807 142.585C137.739 140.634 139.348 138.902 140.636 137.386C141.924 135.871 142.89 134.403 143.534 132.983C144.178 131.562 144.5 130.047 144.5 128.438C144.5 126.6 144.083 125.028 143.25 123.722C142.417 122.396 141.271 121.373 139.812 120.653C138.354 119.934 136.697 119.574 134.841 119.574C132.928 119.574 131.252 119.972 129.812 120.767C128.373 121.544 127.256 122.652 126.46 124.091C125.684 125.53 125.295 127.244 125.295 129.233H115.267C115.267 125.54 116.11 122.33 117.795 119.602C119.481 116.875 121.801 114.763 124.756 113.267C127.729 111.771 131.138 111.023 134.983 111.023C138.884 111.023 142.313 111.752 145.267 113.21C148.222 114.669 150.513 116.667 152.142 119.205C153.79 121.742 154.614 124.64 154.614 127.898C154.614 130.076 154.197 132.216 153.364 134.318C152.53 136.42 151.063 138.75 148.96 141.307C146.877 143.864 143.951 146.96 140.182 150.597L130.153 160.795V161.193H155.494V170H115.608Z" fill="white"/>
    </g>
    <rect x="156" width="78" height="24" fill="#FD0101"/>
    <path d="M166.881 16V8.72727H169.423C169.93 8.72727 170.348 8.81487 170.677 8.99006C171.006 9.16288 171.251 9.39607 171.412 9.68963C171.573 9.98082 171.653 10.304 171.653 10.6591C171.653 10.9716 171.598 11.2296 171.487 11.4332C171.378 11.6368 171.233 11.7978 171.053 11.9162C170.876 12.0346 170.683 12.1222 170.474 12.179V12.25C170.697 12.2642 170.921 12.3423 171.146 12.4844C171.371 12.6264 171.559 12.83 171.71 13.0952C171.862 13.3603 171.938 13.6847 171.938 14.0682C171.938 14.4328 171.855 14.7607 171.689 15.0518C171.523 15.343 171.262 15.5739 170.904 15.7443C170.547 15.9148 170.081 16 169.509 16H166.881ZM167.761 15.2188H169.509C170.084 15.2188 170.492 15.1075 170.734 14.8849C170.978 14.66 171.099 14.3878 171.099 14.0682C171.099 13.822 171.037 13.5947 170.911 13.3864C170.786 13.1757 170.607 13.0076 170.375 12.8821C170.143 12.7543 169.868 12.6903 169.551 12.6903H167.761V15.2188ZM167.761 11.9233H169.395C169.66 11.9233 169.899 11.8712 170.112 11.767C170.328 11.6629 170.498 11.5161 170.624 11.3267C170.751 11.1373 170.815 10.9148 170.815 10.6591C170.815 10.3395 170.704 10.0684 170.482 9.84588C170.259 9.62098 169.906 9.50852 169.423 9.50852H167.761V11.9233ZM173.995 12.5199H175.558C176.197 12.5199 176.686 12.6821 177.025 13.0064C177.363 13.3307 177.532 13.7415 177.532 14.2386C177.532 14.5653 177.457 14.8625 177.305 15.13C177.154 15.3951 176.931 15.607 176.637 15.7656C176.344 15.9219 175.984 16 175.558 16H173.271V10.5455H174.109V15.2188H175.558C175.889 15.2188 176.162 15.1312 176.375 14.956C176.588 14.7808 176.694 14.5559 176.694 14.2812C176.694 13.9924 176.588 13.7569 176.375 13.5746C176.162 13.3923 175.889 13.3011 175.558 13.3011H173.995V12.5199ZM178.399 16V10.5455H179.237V16H178.399ZM184.137 10.5455V11.3267H181.609V16H180.771V10.5455H184.137ZM187.294 16.1136C186.801 16.1136 186.369 15.9964 185.997 15.7621C185.628 15.5277 185.339 15.1998 185.131 14.7784C184.925 14.357 184.822 13.8646 184.822 13.3011C184.822 12.733 184.925 12.237 185.131 11.8132C185.339 11.3894 185.628 11.0604 185.997 10.826C186.369 10.5916 186.801 10.4744 187.294 10.4744C187.786 10.4744 188.217 10.5916 188.586 10.826C188.958 11.0604 189.247 11.3894 189.453 11.8132C189.661 12.237 189.765 12.733 189.765 13.3011C189.765 13.8646 189.661 14.357 189.453 14.7784C189.247 15.1998 188.958 15.5277 188.586 15.7621C188.217 15.9964 187.786 16.1136 187.294 16.1136ZM187.294 15.3608C187.668 15.3608 187.975 15.2649 188.217 15.0732C188.458 14.8814 188.637 14.6293 188.753 14.3168C188.869 14.0043 188.927 13.6657 188.927 13.3011C188.927 12.9366 188.869 12.5968 188.753 12.282C188.637 11.9671 188.458 11.7126 188.217 11.5185C187.975 11.3243 187.668 11.2273 187.294 11.2273C186.919 11.2273 186.612 11.3243 186.37 11.5185C186.129 11.7126 185.95 11.9671 185.834 12.282C185.718 12.5968 185.66 12.9366 185.66 13.3011C185.66 13.6657 185.718 14.0043 185.834 14.3168C185.95 14.6293 186.129 14.8814 186.37 15.0732C186.612 15.2649 186.919 15.3608 187.294 15.3608ZM190.462 17.5625V15.2188H190.917C191.028 15.1027 191.124 14.9773 191.204 14.8423C191.285 14.7074 191.355 14.5476 191.414 14.3629C191.475 14.1759 191.527 13.9486 191.57 13.6811C191.613 13.4112 191.65 13.0857 191.684 12.7045L191.868 10.5455H195.334V15.2188H196.172V17.5625H195.334V16H191.3V17.5625H190.462ZM191.868 15.2188H194.496V11.3267H192.65L192.507 12.7045C192.448 13.2751 192.375 13.7734 192.287 14.1996C192.2 14.6257 192.06 14.9654 191.868 15.2188ZM198.89 16.1278C198.544 16.1278 198.23 16.0627 197.949 15.9325C197.667 15.8 197.443 15.6094 197.278 15.3608C197.112 15.1098 197.029 14.8068 197.029 14.4517C197.029 14.1392 197.09 13.8859 197.214 13.6918C197.337 13.4953 197.501 13.3414 197.707 13.2301C197.913 13.1188 198.14 13.036 198.389 12.9815C198.64 12.9247 198.892 12.8797 199.145 12.8466C199.477 12.804 199.746 12.772 199.952 12.7507C200.16 12.727 200.311 12.688 200.406 12.6335C200.503 12.5791 200.552 12.4844 200.552 12.3494V12.321C200.552 11.9706 200.456 11.6984 200.264 11.5043C200.075 11.3101 199.787 11.2131 199.401 11.2131C199.001 11.2131 198.687 11.3007 198.46 11.4759C198.233 11.651 198.073 11.8381 197.981 12.0369L197.185 11.7528C197.327 11.4214 197.517 11.1634 197.753 10.9787C197.992 10.7917 198.253 10.6615 198.535 10.5881C198.819 10.5123 199.098 10.4744 199.373 10.4744C199.548 10.4744 199.749 10.4957 199.976 10.5384C200.206 10.5786 200.427 10.6626 200.64 10.7905C200.856 10.9183 201.035 11.1113 201.177 11.3693C201.319 11.6274 201.39 11.973 201.39 12.4062V16H200.552V15.2614H200.509C200.452 15.3797 200.358 15.5064 200.225 15.6413C200.092 15.7763 199.916 15.8911 199.696 15.9858C199.476 16.0805 199.207 16.1278 198.89 16.1278ZM199.018 15.375C199.349 15.375 199.628 15.3099 199.856 15.1797C200.085 15.0495 200.258 14.8814 200.374 14.6754C200.492 14.4695 200.552 14.2528 200.552 14.0256V13.2585C200.516 13.3011 200.438 13.3402 200.317 13.3757C200.199 13.4089 200.062 13.4384 199.905 13.4645C199.751 13.4882 199.601 13.5095 199.454 13.5284C199.31 13.545 199.193 13.5592 199.103 13.571C198.885 13.5994 198.681 13.6456 198.492 13.7095C198.305 13.7711 198.153 13.8646 198.037 13.9901C197.924 14.1132 197.867 14.2812 197.867 14.4943C197.867 14.7855 197.975 15.0057 198.19 15.1548C198.408 15.3016 198.684 15.375 199.018 15.375Z" fill="white"/>
    <path d="M208.026 16.0994C207.609 16.0994 207.234 16.0166 206.9 15.8509C206.566 15.6851 206.299 15.4579 206.097 15.169C205.896 14.8802 205.786 14.5511 205.767 14.1818H206.619C206.652 14.5109 206.802 14.7831 207.067 14.9986C207.334 15.2116 207.654 15.3182 208.026 15.3182C208.324 15.3182 208.589 15.2483 208.821 15.1087C209.055 14.969 209.239 14.7772 209.371 14.5334C209.506 14.2872 209.574 14.009 209.574 13.6989C209.574 13.3816 209.504 13.0987 209.364 12.8501C209.227 12.5992 209.038 12.4015 208.796 12.2571C208.555 12.1127 208.279 12.0393 207.969 12.0369C207.746 12.0346 207.518 12.0689 207.283 12.1399C207.049 12.2086 206.856 12.2973 206.705 12.4062L205.881 12.3068L206.321 8.72727H210.099V9.50852H207.06L206.804 11.6534H206.847C206.996 11.535 207.183 11.4368 207.408 11.3587C207.633 11.2805 207.867 11.2415 208.111 11.2415C208.556 11.2415 208.952 11.348 209.3 11.5611C209.651 11.7718 209.925 12.0606 210.124 12.4276C210.326 12.7945 210.426 13.2135 210.426 13.6847C210.426 14.1487 210.322 14.563 210.114 14.9276C209.908 15.2898 209.624 15.5762 209.261 15.7869C208.899 15.9953 208.487 16.0994 208.026 16.0994ZM214.209 16.0994C213.674 16.0994 213.218 15.9538 212.842 15.6626C212.465 15.3691 212.178 14.9441 211.979 14.3878C211.78 13.8291 211.681 13.1544 211.681 12.3636C211.681 11.5777 211.78 10.9065 211.979 10.3501C212.18 9.79143 212.469 9.36529 212.845 9.07173C213.224 8.7758 213.679 8.62784 214.209 8.62784C214.739 8.62784 215.193 8.7758 215.569 9.07173C215.948 9.36529 216.237 9.79143 216.436 10.3501C216.637 10.9065 216.737 11.5777 216.737 12.3636C216.737 13.1544 216.638 13.8291 216.439 14.3878C216.24 14.9441 215.953 15.3691 215.576 15.6626C215.2 15.9538 214.744 16.0994 214.209 16.0994ZM214.209 15.3182C214.739 15.3182 215.151 15.0625 215.445 14.5511C215.738 14.0398 215.885 13.3106 215.885 12.3636C215.885 11.7339 215.818 11.1977 215.683 10.755C215.55 10.3123 215.358 9.97491 215.107 9.7429C214.859 9.51089 214.559 9.39489 214.209 9.39489C213.683 9.39489 213.273 9.65412 212.977 10.1726C212.681 10.6887 212.533 11.419 212.533 12.3636C212.533 12.9934 212.599 13.5284 212.732 13.9688C212.864 14.4091 213.055 14.7441 213.303 14.9737C213.554 15.2034 213.856 15.3182 214.209 15.3182ZM221.794 14.6364V14.2528C221.794 13.9877 221.849 13.745 221.958 13.5249C222.069 13.3023 222.23 13.1248 222.441 12.9922C222.654 12.8572 222.912 12.7898 223.215 12.7898C223.522 12.7898 223.78 12.8572 223.989 12.9922C224.197 13.1248 224.355 13.3023 224.461 13.5249C224.568 13.745 224.621 13.9877 224.621 14.2528V14.6364C224.621 14.9015 224.566 15.1454 224.458 15.3679C224.351 15.5881 224.192 15.7656 223.982 15.9006C223.773 16.0331 223.518 16.0994 223.215 16.0994C222.907 16.0994 222.648 16.0331 222.437 15.9006C222.226 15.7656 222.066 15.5881 221.958 15.3679C221.849 15.1454 221.794 14.9015 221.794 14.6364ZM222.519 14.2528V14.6364C222.519 14.8565 222.571 15.0542 222.675 15.2294C222.779 15.4022 222.959 15.4886 223.215 15.4886C223.463 15.4886 223.638 15.4022 223.74 15.2294C223.844 15.0542 223.896 14.8565 223.896 14.6364V14.2528C223.896 14.0327 223.847 13.8362 223.747 13.6634C223.648 13.4882 223.47 13.4006 223.215 13.4006C222.966 13.4006 222.787 13.4882 222.678 13.6634C222.572 13.8362 222.519 14.0327 222.519 14.2528ZM218.172 10.4744V10.0909C218.172 9.82576 218.227 9.5831 218.335 9.36293C218.447 9.14039 218.608 8.96283 218.818 8.83026C219.031 8.69531 219.289 8.62784 219.593 8.62784C219.9 8.62784 220.158 8.69531 220.367 8.83026C220.575 8.96283 220.732 9.14039 220.839 9.36293C220.945 9.5831 220.999 9.82576 220.999 10.0909V10.4744C220.999 10.7396 220.944 10.9834 220.835 11.206C220.729 11.4261 220.57 11.6037 220.36 11.7386C220.151 11.8712 219.896 11.9375 219.593 11.9375C219.285 11.9375 219.026 11.8712 218.815 11.7386C218.604 11.6037 218.444 11.4261 218.335 11.206C218.227 10.9834 218.172 10.7396 218.172 10.4744ZM218.896 10.0909V10.4744C218.896 10.6946 218.949 10.8923 219.053 11.0675C219.157 11.2403 219.337 11.3267 219.593 11.3267C219.841 11.3267 220.016 11.2403 220.118 11.0675C220.222 10.8923 220.274 10.6946 220.274 10.4744V10.0909C220.274 9.87074 220.225 9.67424 220.125 9.50142C220.026 9.32623 219.848 9.23864 219.593 9.23864C219.344 9.23864 219.165 9.32623 219.056 9.50142C218.95 9.67424 218.896 9.87074 218.896 10.0909ZM218.442 16L223.442 8.72727H224.252L219.252 16H218.442Z" fill="white"/>
    <path d="M47.8608 242V233.273H51.2017C51.8324 233.273 52.3565 233.372 52.7741 233.571C53.1946 233.767 53.5085 234.036 53.7159 234.376C53.9261 234.717 54.0312 235.104 54.0312 235.536C54.0312 235.891 53.9631 236.195 53.8267 236.447C53.6903 236.697 53.5071 236.901 53.277 237.057C53.0469 237.213 52.7898 237.325 52.5057 237.393V237.479C52.8153 237.496 53.1122 237.591 53.3963 237.764C53.6832 237.935 53.9176 238.176 54.0994 238.489C54.2813 238.801 54.3722 239.179 54.3722 239.622C54.3722 240.074 54.2628 240.48 54.044 240.841C53.8253 241.199 53.4957 241.482 53.0554 241.689C52.6151 241.896 52.0611 242 51.3935 242H47.8608ZM49.4418 240.679H51.142C51.7159 240.679 52.1293 240.57 52.3821 240.351C52.6378 240.129 52.7656 239.845 52.7656 239.499C52.7656 239.24 52.7017 239.007 52.5739 238.8C52.446 238.589 52.2642 238.425 52.0284 238.305C51.7926 238.183 51.5114 238.122 51.1847 238.122H49.4418V240.679ZM49.4418 236.984H51.0057C51.2784 236.984 51.5241 236.935 51.7429 236.835C51.9616 236.733 52.1335 236.589 52.2585 236.405C52.3864 236.217 52.4503 235.996 52.4503 235.74C52.4503 235.402 52.331 235.124 52.0923 234.905C51.8565 234.686 51.5057 234.577 51.0398 234.577H49.4418V236.984ZM58.5344 242.128C57.881 242.128 57.32 241.984 56.8512 241.697C56.3853 241.411 56.0259 241.014 55.7731 240.509C55.5231 240 55.3981 239.415 55.3981 238.753C55.3981 238.088 55.5259 237.501 55.7816 236.993C56.0373 236.482 56.3981 236.084 56.864 235.8C57.3327 235.513 57.8867 235.369 58.5259 235.369C59.0572 235.369 59.5273 235.467 59.9364 235.663C60.3484 235.857 60.6765 236.131 60.9208 236.486C61.1651 236.838 61.3043 237.25 61.3384 237.722H59.864C59.8043 237.406 59.6623 237.143 59.4379 236.933C59.2163 236.72 58.9194 236.614 58.5472 236.614C58.2319 236.614 57.9549 236.699 57.7163 236.869C57.4776 237.037 57.2915 237.278 57.158 237.594C57.0273 237.909 56.962 238.287 56.962 238.727C56.962 239.173 57.0273 239.557 57.158 239.878C57.2887 240.196 57.4719 240.442 57.7077 240.615C57.9464 240.786 58.2262 240.871 58.5472 240.871C58.7745 240.871 58.9776 240.828 59.1566 240.743C59.3384 240.655 59.4904 240.528 59.6126 240.364C59.7347 240.199 59.8185 239.999 59.864 239.763H61.3384C61.3015 240.226 61.1651 240.636 60.9293 240.994C60.6935 241.349 60.3725 241.628 59.9663 241.83C59.56 242.028 59.0827 242.128 58.5344 242.128ZM65.5028 242.128C64.8466 242.128 64.2798 241.991 63.8026 241.719C63.3281 241.443 62.9631 241.054 62.7074 240.551C62.4517 240.045 62.3239 239.45 62.3239 238.766C62.3239 238.092 62.4517 237.501 62.7074 236.993C62.9659 236.482 63.3267 236.084 63.7898 235.8C64.2528 235.513 64.7969 235.369 65.4219 235.369C65.8253 235.369 66.206 235.435 66.5639 235.565C66.9247 235.693 67.2429 235.892 67.5185 236.162C67.7969 236.432 68.0156 236.776 68.1747 237.193C68.3338 237.608 68.4134 238.102 68.4134 238.676V239.149H63.0483V238.109H66.9347C66.9318 237.814 66.8679 237.551 66.7429 237.321C66.6179 237.088 66.4432 236.905 66.2188 236.771C65.9972 236.638 65.7386 236.571 65.4432 236.571C65.1278 236.571 64.8509 236.648 64.6122 236.801C64.3736 236.952 64.1875 237.151 64.054 237.398C63.9233 237.642 63.8565 237.911 63.8537 238.203V239.111C63.8537 239.491 63.9233 239.818 64.0625 240.091C64.2017 240.361 64.3963 240.568 64.6463 240.713C64.8963 240.855 65.1889 240.926 65.5241 240.926C65.7486 240.926 65.9517 240.895 66.1335 240.832C66.3153 240.767 66.473 240.672 66.6065 240.547C66.7401 240.422 66.8409 240.267 66.9091 240.082L68.3494 240.244C68.2585 240.625 68.0852 240.957 67.8295 241.241C67.5767 241.523 67.2528 241.741 66.858 241.898C66.4631 242.051 66.0114 242.128 65.5028 242.128ZM75.6651 244.224V233.273H77.212V244.224H75.6651ZM75.6651 242.128C75.185 242.128 74.7461 242.047 74.3484 241.885C73.9506 241.723 73.6069 241.493 73.3171 241.195C73.0302 240.896 72.8072 240.541 72.6481 240.129C72.4918 239.714 72.4137 239.256 72.4137 238.753C72.4137 238.25 72.4918 237.791 72.6481 237.376C72.8072 236.962 73.0302 236.605 73.3171 236.307C73.6069 236.006 73.9506 235.774 74.3484 235.612C74.7461 235.45 75.185 235.369 75.6651 235.369H75.9933V242.128H75.6651ZM75.6651 240.884H75.8569V236.614H75.6651C75.3924 236.614 75.1509 236.67 74.9407 236.784C74.7333 236.895 74.5586 237.05 74.4165 237.249C74.2773 237.445 74.1708 237.672 74.0969 237.93C74.0259 238.186 73.9904 238.46 73.9904 238.753C73.9904 239.142 74.0543 239.499 74.1822 239.822C74.31 240.143 74.4975 240.401 74.7447 240.594C74.9947 240.787 75.3015 240.884 75.6651 240.884ZM77.212 242.128H76.8839V235.369H77.212C77.6921 235.369 78.131 235.45 78.5288 235.612C78.9265 235.774 79.2688 236.006 79.5558 236.307C79.8455 236.605 80.0685 236.962 80.2248 237.376C80.3839 237.791 80.4634 238.25 80.4634 238.753C80.4634 239.256 80.3839 239.714 80.2248 240.129C80.0685 240.541 79.8455 240.896 79.5558 241.195C79.2688 241.493 78.9265 241.723 78.5288 241.885C78.131 242.047 77.6921 242.128 77.212 242.128ZM77.212 240.884C77.4876 240.884 77.729 240.828 77.9364 240.717C78.1438 240.607 78.3171 240.453 78.4563 240.257C78.5984 240.061 78.7049 239.835 78.7759 239.58C78.8469 239.321 78.8825 239.045 78.8825 238.753C78.8825 238.364 78.82 238.007 78.695 237.683C78.57 237.359 78.3825 237.101 78.1325 236.908C77.8853 236.712 77.5785 236.614 77.212 236.614H77.0202V240.884H77.212ZM83.2525 239.912L85.8732 235.455H87.4585V242H85.967V237.538L83.3548 242H81.7653V235.455H83.2525V239.912ZM88.5909 242L88.5824 240.73H88.8082C88.9787 240.73 89.1222 240.692 89.2386 240.615C89.3551 240.538 89.4517 240.411 89.5284 240.232C89.6051 240.05 89.6648 239.805 89.7074 239.499C89.75 239.192 89.7798 238.81 89.7969 238.352L89.9119 235.455H94.6847V242H93.1932V236.72H91.3139L91.2116 238.83C91.1861 239.375 91.125 239.848 91.0284 240.249C90.9347 240.646 90.8011 240.974 90.6278 241.233C90.4574 241.491 90.2429 241.685 89.9844 241.812C89.7259 241.938 89.4205 242 89.0682 242H88.5909ZM97.282 237.585H99.2124C100.048 237.585 100.694 237.788 101.151 238.195C101.609 238.601 101.839 239.134 101.842 239.793C101.839 240.222 101.734 240.602 101.526 240.935C101.322 241.267 101.023 241.528 100.631 241.719C100.242 241.906 99.7692 242 99.2124 242H96.2379V235.455H97.7251V240.734H99.2124C99.5476 240.734 99.8232 240.649 100.039 240.479C100.255 240.305 100.363 240.084 100.363 239.814C100.363 239.53 100.255 239.298 100.039 239.119C99.8232 238.94 99.5476 238.851 99.2124 238.851H97.282V237.585ZM106.931 240.206L108.874 235.455H110.118L107.472 242H106.394L103.807 235.455H105.039L106.931 240.206ZM104.651 235.455V242H103.164V235.455H104.651ZM109.275 242V235.455H110.749V242H109.275ZM113.348 237.585H115.279C116.114 237.585 116.76 237.788 117.218 238.195C117.675 238.601 117.905 239.134 117.908 239.793C117.905 240.222 117.8 240.602 117.593 240.935C117.388 241.267 117.09 241.528 116.698 241.719C116.309 241.906 115.836 242 115.279 242H112.304V235.455H113.792V240.734H115.279C115.614 240.734 115.89 240.649 116.105 240.479C116.321 240.305 116.429 240.084 116.429 239.814C116.429 239.53 116.321 239.298 116.105 239.119C115.89 238.94 115.614 238.851 115.279 238.851H113.348V237.585ZM118.722 242V235.455H120.265V242H118.722ZM126.319 239.912L128.94 235.455H130.525V242H129.033V237.538L126.421 242H124.832V235.455H126.319V239.912ZM137.941 242.128C137.287 242.128 136.726 241.984 136.257 241.697C135.792 241.411 135.432 241.014 135.179 240.509C134.929 240 134.804 239.415 134.804 238.753C134.804 238.088 134.932 237.501 135.188 236.993C135.444 236.482 135.804 236.084 136.27 235.8C136.739 235.513 137.293 235.369 137.932 235.369C138.463 235.369 138.934 235.467 139.343 235.663C139.755 235.857 140.083 236.131 140.327 236.486C140.571 236.838 140.711 237.25 140.745 237.722H139.27C139.211 237.406 139.069 237.143 138.844 236.933C138.623 236.72 138.326 236.614 137.953 236.614C137.638 236.614 137.361 236.699 137.123 236.869C136.884 237.037 136.698 237.278 136.564 237.594C136.434 237.909 136.368 238.287 136.368 238.727C136.368 239.173 136.434 239.557 136.564 239.878C136.695 240.196 136.878 240.442 137.114 240.615C137.353 240.786 137.632 240.871 137.953 240.871C138.181 240.871 138.384 240.828 138.563 240.743C138.745 240.655 138.897 240.528 139.019 240.364C139.141 240.199 139.225 239.999 139.27 239.763H140.745C140.708 240.226 140.571 240.636 140.336 240.994C140.1 241.349 139.779 241.628 139.373 241.83C138.966 242.028 138.489 242.128 137.941 242.128ZM144.909 242.128C144.253 242.128 143.686 241.991 143.209 241.719C142.734 241.443 142.369 241.054 142.114 240.551C141.858 240.045 141.73 239.45 141.73 238.766C141.73 238.092 141.858 237.501 142.114 236.993C142.372 236.482 142.733 236.084 143.196 235.8C143.659 235.513 144.203 235.369 144.828 235.369C145.232 235.369 145.612 235.435 145.97 235.565C146.331 235.693 146.649 235.892 146.925 236.162C147.203 236.432 147.422 236.776 147.581 237.193C147.74 237.608 147.82 238.102 147.82 238.676V239.149H142.455V238.109H146.341C146.338 237.814 146.274 237.551 146.149 237.321C146.024 237.088 145.849 236.905 145.625 236.771C145.403 236.638 145.145 236.571 144.849 236.571C144.534 236.571 144.257 236.648 144.018 236.801C143.78 236.952 143.594 237.151 143.46 237.398C143.33 237.642 143.263 237.911 143.26 238.203V239.111C143.26 239.491 143.33 239.818 143.469 240.091C143.608 240.361 143.803 240.568 144.053 240.713C144.303 240.855 144.595 240.926 144.93 240.926C145.155 240.926 145.358 240.895 145.54 240.832C145.722 240.767 145.879 240.672 146.013 240.547C146.146 240.422 146.247 240.267 146.315 240.082L147.756 240.244C147.665 240.625 147.491 240.957 147.236 241.241C146.983 241.523 146.659 241.741 146.264 241.898C145.869 242.051 145.418 242.128 144.909 242.128ZM149.125 244.455V235.455H150.642V236.537H150.731C150.811 236.378 150.923 236.209 151.068 236.03C151.213 235.848 151.409 235.693 151.656 235.565C151.903 235.435 152.218 235.369 152.602 235.369C153.108 235.369 153.564 235.499 153.97 235.757C154.379 236.013 154.703 236.392 154.941 236.895C155.183 237.395 155.304 238.009 155.304 238.736C155.304 239.455 155.186 240.065 154.95 240.568C154.714 241.071 154.393 241.455 153.987 241.719C153.581 241.983 153.12 242.115 152.606 242.115C152.231 242.115 151.92 242.053 151.673 241.928C151.426 241.803 151.227 241.652 151.076 241.476C150.929 241.297 150.814 241.128 150.731 240.969H150.667V244.455H149.125ZM150.637 238.727C150.637 239.151 150.697 239.521 150.816 239.839C150.939 240.158 151.113 240.406 151.341 240.585C151.571 240.761 151.849 240.849 152.176 240.849C152.517 240.849 152.802 240.759 153.032 240.577C153.262 240.392 153.436 240.141 153.552 239.822C153.672 239.501 153.731 239.136 153.731 238.727C153.731 238.321 153.673 237.96 153.556 237.645C153.44 237.33 153.267 237.082 153.037 236.903C152.806 236.724 152.52 236.635 152.176 236.635C151.846 236.635 151.566 236.722 151.336 236.895C151.106 237.068 150.931 237.311 150.812 237.624C150.696 237.936 150.637 238.304 150.637 238.727ZM158.112 239.912L160.733 235.455H162.318V242H160.826V237.538L158.214 242H156.625V235.455H158.112V239.912ZM165.786 242.132C165.371 242.132 164.997 242.058 164.665 241.911C164.335 241.76 164.074 241.538 163.881 241.246C163.69 240.953 163.595 240.592 163.595 240.163C163.595 239.794 163.663 239.489 163.8 239.247C163.936 239.006 164.122 238.812 164.358 238.668C164.594 238.523 164.859 238.413 165.155 238.339C165.453 238.263 165.761 238.207 166.08 238.173C166.463 238.134 166.774 238.098 167.013 238.067C167.251 238.033 167.425 237.982 167.533 237.913C167.643 237.842 167.699 237.733 167.699 237.585V237.56C167.699 237.239 167.604 236.99 167.413 236.814C167.223 236.638 166.949 236.55 166.591 236.55C166.213 236.55 165.913 236.632 165.692 236.797C165.473 236.962 165.325 237.156 165.249 237.381L163.808 237.176C163.922 236.778 164.109 236.446 164.371 236.179C164.632 235.909 164.952 235.707 165.33 235.574C165.707 235.438 166.125 235.369 166.582 235.369C166.898 235.369 167.212 235.406 167.524 235.48C167.837 235.554 168.122 235.676 168.381 235.847C168.639 236.014 168.847 236.243 169.003 236.533C169.162 236.822 169.241 237.185 169.241 237.619V242H167.759V241.101H167.707C167.614 241.283 167.482 241.453 167.311 241.612C167.143 241.768 166.932 241.895 166.676 241.991C166.423 242.085 166.126 242.132 165.786 242.132ZM166.186 240.999C166.496 240.999 166.764 240.937 166.991 240.815C167.219 240.69 167.393 240.526 167.516 240.321C167.641 240.116 167.703 239.893 167.703 239.652V238.881C167.655 238.92 167.572 238.957 167.456 238.991C167.342 239.026 167.214 239.055 167.072 239.081C166.93 239.107 166.79 239.129 166.651 239.149C166.511 239.169 166.391 239.186 166.288 239.2C166.058 239.232 165.852 239.283 165.67 239.354C165.489 239.425 165.345 239.524 165.24 239.652C165.135 239.777 165.082 239.939 165.082 240.138C165.082 240.422 165.186 240.636 165.393 240.781C165.601 240.926 165.865 240.999 166.186 240.999ZM170.341 242L170.332 240.73H170.558C170.729 240.73 170.872 240.692 170.989 240.615C171.105 240.538 171.202 240.411 171.278 240.232C171.355 240.05 171.415 239.805 171.457 239.499C171.5 239.192 171.53 238.81 171.547 238.352L171.662 235.455H176.435V242H174.943V236.72H173.064L172.962 238.83C172.936 239.375 172.875 239.848 172.778 240.249C172.685 240.646 172.551 240.974 172.378 241.233C172.207 241.491 171.993 241.685 171.734 241.812C171.476 241.938 171.17 242 170.818 242H170.341ZM179.032 237.585H180.962C181.798 237.585 182.444 237.788 182.901 238.195C183.359 238.601 183.589 239.134 183.592 239.793C183.589 240.222 183.484 240.602 183.276 240.935C183.072 241.267 182.773 241.528 182.381 241.719C181.992 241.906 181.519 242 180.962 242H177.988V235.455H179.475V240.734H180.962C181.298 240.734 181.573 240.649 181.789 240.479C182.005 240.305 182.113 240.084 182.113 239.814C182.113 239.53 182.005 239.298 181.789 239.119C181.573 238.94 181.298 238.851 180.962 238.851H179.032V237.585ZM184.406 242V235.455H185.948V242H184.406Z" fill="white"/>
    <path d="M47.008 66V43.6H56.224C58.208 43.6 59.904 43.92 61.312 44.56C62.7413 45.2 63.84 46.1173 64.608 47.312C65.376 48.5067 65.76 49.9253 65.76 51.568C65.76 53.2107 65.376 54.6293 64.608 55.824C63.84 57.0187 62.7413 57.936 61.312 58.576C59.904 59.216 58.208 59.536 56.224 59.536H49.312L51.168 57.584V66H47.008ZM51.168 58.032L49.312 56.016H56.032C57.8667 56.016 59.2427 55.632 60.16 54.864C61.0987 54.0747 61.568 52.976 61.568 51.568C61.568 50.1387 61.0987 49.04 60.16 48.272C59.2427 47.504 57.8667 47.12 56.032 47.12H49.312L51.168 45.072V58.032ZM69.374 66V48.912H73.182V53.616L72.734 52.24C73.246 51.088 74.046 50.2133 75.134 49.616C76.2433 49.0187 77.6193 48.72 79.262 48.72V52.528C79.0913 52.4853 78.9313 52.464 78.782 52.464C78.6327 52.4427 78.4833 52.432 78.334 52.432C76.8193 52.432 75.614 52.88 74.718 53.776C73.822 54.6507 73.374 55.9627 73.374 57.712V66H69.374ZM90.531 66.224C88.6323 66.224 86.9683 65.8507 85.539 65.104C84.131 64.336 83.0323 63.2907 82.243 61.968C81.475 60.6453 81.091 59.1413 81.091 57.456C81.091 55.7493 81.4643 54.2453 82.211 52.944C82.979 51.6213 84.0243 50.5867 85.347 49.84C86.691 49.0933 88.2163 48.72 89.923 48.72C91.587 48.72 93.0697 49.0827 94.371 49.808C95.6723 50.5333 96.6963 51.5573 97.443 52.88C98.1897 54.2027 98.563 55.76 98.563 57.552C98.563 57.7227 98.5523 57.9147 98.531 58.128C98.531 58.3413 98.5203 58.544 98.499 58.736H84.259V56.08H96.387L94.819 56.912C94.8403 55.9307 94.6377 55.0667 94.211 54.32C93.7843 53.5733 93.1977 52.9867 92.451 52.56C91.7257 52.1333 90.883 51.92 89.923 51.92C88.9417 51.92 88.0777 52.1333 87.331 52.56C86.6057 52.9867 86.0297 53.584 85.603 54.352C85.1977 55.0987 84.995 55.984 84.995 57.008V57.648C84.995 58.672 85.2297 59.5787 85.699 60.368C86.1683 61.1573 86.8297 61.7653 87.683 62.192C88.5363 62.6187 89.5177 62.832 90.627 62.832C91.587 62.832 92.451 62.6827 93.219 62.384C93.987 62.0853 94.6697 61.616 95.267 60.976L97.411 63.44C96.643 64.336 95.6723 65.0293 94.499 65.52C93.347 65.9893 92.0243 66.224 90.531 66.224ZM123.973 48.72C125.339 48.72 126.544 48.9867 127.589 49.52C128.656 50.0533 129.488 50.8747 130.085 51.984C130.683 53.072 130.981 54.48 130.981 56.208V66H126.981V56.72C126.981 55.2053 126.651 54.0747 125.989 53.328C125.328 52.5813 124.379 52.208 123.141 52.208C122.267 52.208 121.488 52.4 120.805 52.784C120.144 53.168 119.621 53.7333 119.237 54.48C118.875 55.2267 118.693 56.176 118.693 57.328V66H114.693V56.72C114.693 55.2053 114.363 54.0747 113.701 53.328C113.04 52.5813 112.091 52.208 110.853 52.208C109.979 52.208 109.2 52.4 108.517 52.784C107.856 53.168 107.333 53.7333 106.949 54.48C106.587 55.2267 106.405 56.176 106.405 57.328V66H102.405V48.912H106.213V53.456L105.541 52.112C106.117 51.0027 106.949 50.16 108.037 49.584C109.147 49.008 110.405 48.72 111.813 48.72C113.413 48.72 114.8 49.1147 115.973 49.904C117.168 50.6933 117.957 51.888 118.341 53.488L116.773 52.944C117.328 51.664 118.245 50.64 119.525 49.872C120.805 49.104 122.288 48.72 123.973 48.72ZM136.093 66V48.912H140.093V66H136.093ZM138.109 46.096C137.362 46.096 136.743 45.8613 136.253 45.392C135.783 44.9227 135.549 44.3573 135.549 43.696C135.549 43.0133 135.783 42.448 136.253 42C136.743 41.5307 137.362 41.296 138.109 41.296C138.855 41.296 139.463 41.52 139.933 41.968C140.423 42.3947 140.669 42.9387 140.669 43.6C140.669 44.304 140.434 44.9013 139.965 45.392C139.495 45.8613 138.877 46.096 138.109 46.096ZM152.575 66.224C151.124 66.224 149.844 65.9573 148.735 65.424C147.625 64.8693 146.761 64.0373 146.143 62.928C145.524 61.7973 145.215 60.3787 145.215 58.672V48.912H149.215V58.128C149.215 59.664 149.556 60.816 150.239 61.584C150.943 62.3307 151.935 62.704 153.215 62.704C154.153 62.704 154.964 62.512 155.647 62.128C156.351 61.744 156.895 61.168 157.279 60.4C157.684 59.632 157.887 58.6827 157.887 57.552V48.912H161.887V66H158.079V61.392L158.751 62.8C158.175 63.9093 157.332 64.7627 156.223 65.36C155.113 65.936 153.897 66.224 152.575 66.224ZM188.692 48.72C190.057 48.72 191.263 48.9867 192.308 49.52C193.375 50.0533 194.207 50.8747 194.804 51.984C195.401 53.072 195.7 54.48 195.7 56.208V66H191.7V56.72C191.7 55.2053 191.369 54.0747 190.708 53.328C190.047 52.5813 189.097 52.208 187.86 52.208C186.985 52.208 186.207 52.4 185.524 52.784C184.863 53.168 184.34 53.7333 183.956 54.48C183.593 55.2267 183.412 56.176 183.412 57.328V66H179.412V56.72C179.412 55.2053 179.081 54.0747 178.42 53.328C177.759 52.5813 176.809 52.208 175.572 52.208C174.697 52.208 173.919 52.4 173.236 52.784C172.575 53.168 172.052 53.7333 171.668 54.48C171.305 55.2267 171.124 56.176 171.124 57.328V66H167.124V48.912H170.932V53.456L170.26 52.112C170.836 51.0027 171.668 50.16 172.756 49.584C173.865 49.008 175.124 48.72 176.532 48.72C178.132 48.72 179.519 49.1147 180.692 49.904C181.887 50.6933 182.676 51.888 183.06 53.488L181.492 52.944C182.047 51.664 182.964 50.64 184.244 49.872C185.524 49.104 187.007 48.72 188.692 48.72Z" fill="white"/>
    <defs>
        <filter id="filter0_i_636_794" x="63" y="80.2" width="107" height="111.8" filterUnits="userSpaceOnUse" color-interpolation-filters="sRGB">
            <feFlood flood-opacity="0" result="BackgroundImageFix"/>
            <feBlend mode="normal" in="SourceGraphic" in2="BackgroundImageFix" result="shape"/>
            <feColorMatrix in="SourceAlpha" type="matrix" values="0 0 0 0 0 0 0 0 0 0 0 0 0 0 0 0 0 0 127 0" result="hardAlpha"/>
            <feOffset dy="-15"/>
            <feGaussianBlur stdDeviation="2.4"/>
            <feComposite in2="hardAlpha" operator="arithmetic" k2="-1" k3="1"/>
            <feColorMatrix type="matrix" values="0 0 0 0 0.0705882 0 0 0 0 0.388235 0 0 0 0 0.870588 0 0 0 0.28 0"/>
            <feBlend mode="normal" in2="shape" result="effect1_innerShadow_636_794"/>
        </filter>
        <filter id="filter1_i_636_794" x="87.2329" y="177.018" width="59.1646" height="17.4475" filterUnits="userSpaceOnUse" color-interpolation-filters="sRGB">
            <feFlood flood-opacity="0" result="BackgroundImageFix"/>
            <feBlend mode="normal" in="SourceGraphic" in2="BackgroundImageFix" result="shape"/>
            <feColorMatrix in="SourceAlpha" type="matrix" values="0 0 0 0 0 0 0 0 0 0 0 0 0 0 0 0 0 0 127 0" result="hardAlpha"/>
            <feOffset dy="-15"/>
            <feGaussianBlur stdDeviation="2.4"/>
            <feComposite in2="hardAlpha" operator="arithmetic" k2="-1" k3="1"/>
            <feColorMatrix type="matrix" values="0 0 0 0 0.0705882 0 0 0 0 0.388235 0 0 0 0 0.870588 0 0 0 0.28 0"/>
            <feBlend mode="normal" in2="shape" result="effect1_innerShadow_636_794"/>
        </filter>
        <filter id="filter2_i_636_794" x="76.3467" y="106.222" width="79.1475" height="63.7775" filterUnits="userSpaceOnUse" color-interpolation-filters="sRGB">
            <feFlood flood-opacity="0" result="BackgroundImageFix"/>
            <feBlend mode="normal" in="SourceGraphic" in2="BackgroundImageFix" result="shape"/>
            <feColorMatrix in="SourceAlpha" type="matrix" values="0 0 0 0 0 0 0 0 0 0 0 0 0 0 0 0 0 0 127 0" result="hardAlpha"/>
            <feOffset dy="-15"/>
            <feGaussianBlur stdDeviation="2.4"/>
            <feComposite in2="hardAlpha" operator="arithmetic" k2="-1" k3="1"/>
            <feColorMatrix type="matrix" values="0 0 0 0 0.0705882 0 0 0 0 0.388235 0 0 0 0 0.870588 0 0 0 0.28 0"/>
            <feBlend mode="normal" in2="shape" result="effect1_innerShadow_636_794"/>
        </filter>
    </defs>
</svg>
