<svg width="234" height="311" viewBox="0 0 234 311" fill="none" xmlns="http://www.w3.org/2000/svg">
    <rect width="234" height="311" fill="#5F7C8D"/>
    <g filter="url(#filter0_i_636_712)">
        <rect x="64.5" y="86.5" width="104" height="104" rx="13.5" stroke="white" stroke-width="3"/>
    </g>
    <rect x="77" y="175" width="80" height="31" fill="#5F7C8D"/>
    <g filter="url(#filter1_i_636_712)">
        <path d="M87.233 181.818H88.7045L92.1648 190.27H92.2841L95.7443 181.818H97.2159V192H96.0625V184.264H95.9631L92.7812 192H91.6676L88.4858 184.264H88.3864V192H87.233V181.818ZM102.731 192.159C101.995 192.159 101.36 191.997 100.827 191.672C100.296 191.344 99.8869 190.886 99.5985 190.3C99.3135 189.71 99.171 189.024 99.171 188.241C99.171 187.459 99.3135 186.77 99.5985 186.173C99.8869 185.573 100.288 185.106 100.802 184.771C101.319 184.433 101.922 184.264 102.611 184.264C103.009 184.264 103.402 184.33 103.79 184.463C104.177 184.596 104.53 184.811 104.849 185.109C105.167 185.404 105.42 185.795 105.609 186.283C105.798 186.77 105.893 187.37 105.893 188.082V188.58H100.006V187.565H104.699C104.699 187.134 104.613 186.75 104.441 186.412C104.272 186.074 104.03 185.807 103.715 185.612C103.403 185.416 103.036 185.318 102.611 185.318C102.144 185.318 101.74 185.434 101.398 185.666C101.06 185.895 100.8 186.193 100.618 186.561C100.435 186.929 100.344 187.323 100.344 187.744V188.42C100.344 188.997 100.444 189.486 100.643 189.887C100.845 190.285 101.125 190.588 101.483 190.797C101.841 191.002 102.257 191.105 102.731 191.105C103.039 191.105 103.317 191.062 103.566 190.976C103.818 190.886 104.035 190.754 104.217 190.578C104.399 190.399 104.54 190.177 104.64 189.912L105.773 190.23C105.654 190.615 105.453 190.953 105.172 191.244C104.89 191.533 104.542 191.758 104.128 191.92C103.713 192.08 103.248 192.159 102.731 192.159ZM110.78 192.159C110.064 192.159 109.447 191.99 108.93 191.652C108.413 191.314 108.015 190.848 107.737 190.255C107.459 189.662 107.319 188.984 107.319 188.222C107.319 187.446 107.462 186.762 107.747 186.168C108.035 185.572 108.436 185.106 108.95 184.771C109.467 184.433 110.07 184.264 110.76 184.264C111.297 184.264 111.781 184.364 112.211 184.562C112.642 184.761 112.995 185.04 113.27 185.398C113.546 185.756 113.716 186.173 113.782 186.651H112.609C112.52 186.303 112.321 185.994 112.013 185.726C111.708 185.454 111.297 185.318 110.78 185.318C110.322 185.318 109.921 185.437 109.577 185.676C109.235 185.911 108.968 186.245 108.776 186.675C108.587 187.103 108.493 187.605 108.493 188.182C108.493 188.772 108.586 189.286 108.771 189.723C108.96 190.161 109.225 190.5 109.567 190.742C109.911 190.984 110.316 191.105 110.78 191.105C111.085 191.105 111.361 191.052 111.61 190.946C111.858 190.84 112.069 190.688 112.241 190.489C112.414 190.29 112.536 190.051 112.609 189.773H113.782C113.716 190.223 113.552 190.629 113.29 190.991C113.032 191.349 112.689 191.634 112.261 191.846C111.837 192.055 111.343 192.159 110.78 192.159ZM120.091 192V185.438H118.063C117.606 185.438 117.246 185.544 116.984 185.756C116.722 185.968 116.591 186.259 116.591 186.631C116.591 186.995 116.709 187.282 116.944 187.491C117.183 187.7 117.51 187.804 117.924 187.804H120.39V188.898H117.924C117.407 188.898 116.961 188.807 116.586 188.624C116.212 188.442 115.924 188.182 115.721 187.844C115.519 187.502 115.418 187.098 115.418 186.631C115.418 186.16 115.524 185.756 115.736 185.418C115.948 185.08 116.252 184.819 116.646 184.637C117.044 184.455 117.516 184.364 118.063 184.364H121.205V192H120.091ZM115.001 192L117.168 188.202H118.441L116.273 192H115.001ZM129.365 184.364V190.906H130.439V194.466H129.265V192H123.359V184.364H124.532V190.906H128.191V184.364H129.365ZM135.365 192.159C134.63 192.159 133.995 191.997 133.461 191.672C132.931 191.344 132.522 190.886 132.233 190.3C131.948 189.71 131.806 189.024 131.806 188.241C131.806 187.459 131.948 186.77 132.233 186.173C132.522 185.573 132.923 185.106 133.436 184.771C133.953 184.433 134.557 184.264 135.246 184.264C135.644 184.264 136.037 184.33 136.424 184.463C136.812 184.596 137.165 184.811 137.483 185.109C137.801 185.404 138.055 185.795 138.244 186.283C138.433 186.77 138.527 187.37 138.527 188.082V188.58H132.641V187.565H137.334C137.334 187.134 137.248 186.75 137.076 186.412C136.907 186.074 136.665 185.807 136.35 185.612C136.038 185.416 135.67 185.318 135.246 185.318C134.779 185.318 134.374 185.434 134.033 185.666C133.695 185.895 133.435 186.193 133.252 186.561C133.07 186.929 132.979 187.323 132.979 187.744V188.42C132.979 188.997 133.078 189.486 133.277 189.887C133.48 190.285 133.76 190.588 134.118 190.797C134.475 191.002 134.891 191.105 135.365 191.105C135.674 191.105 135.952 191.062 136.201 190.976C136.453 190.886 136.67 190.754 136.852 190.578C137.034 190.399 137.175 190.177 137.275 189.912L138.408 190.23C138.289 190.615 138.088 190.953 137.806 191.244C137.525 191.533 137.177 191.758 136.762 191.92C136.348 192.08 135.882 192.159 135.365 192.159ZM140.312 192V184.364H143.434C144.256 184.364 144.909 184.549 145.393 184.92C145.877 185.292 146.119 185.782 146.119 186.392C146.119 186.856 145.981 187.216 145.706 187.471C145.431 187.723 145.078 187.893 144.647 187.983C144.929 188.023 145.203 188.122 145.468 188.281C145.736 188.44 145.958 188.659 146.134 188.938C146.31 189.213 146.397 189.551 146.397 189.952C146.397 190.343 146.298 190.692 146.099 191.001C145.9 191.309 145.615 191.553 145.244 191.732C144.873 191.911 144.429 192 143.912 192H140.312ZM141.426 190.926H143.912C144.316 190.926 144.632 190.83 144.861 190.638C145.09 190.446 145.204 190.184 145.204 189.852C145.204 189.458 145.09 189.148 144.861 188.923C144.632 188.694 144.316 188.58 143.912 188.58H141.426V190.926ZM141.426 187.565H143.434C143.749 187.565 144.019 187.522 144.245 187.436C144.47 187.347 144.642 187.221 144.762 187.058C144.884 186.893 144.946 186.697 144.946 186.472C144.946 186.15 144.811 185.898 144.543 185.716C144.275 185.53 143.905 185.438 143.434 185.438H141.426V187.565Z" fill="white"/>
    </g>
    <g filter="url(#filter2_i_636_712)">
        <path d="M117.477 170.795C114.693 170.777 111.975 170.294 109.324 169.347C106.672 168.381 104.286 166.818 102.165 164.659C100.044 162.481 98.358 159.593 97.108 155.994C95.858 152.377 95.2424 147.898 95.2614 142.557C95.2614 137.576 95.7917 133.134 96.8523 129.233C97.9129 125.331 99.4375 122.036 101.426 119.347C103.415 116.638 105.811 114.574 108.614 113.153C111.436 111.733 114.589 111.023 118.074 111.023C121.729 111.023 124.968 111.742 127.79 113.182C130.631 114.621 132.922 116.591 134.665 119.091C136.407 121.572 137.487 124.375 137.903 127.5H127.534C127.004 125.265 125.915 123.485 124.267 122.159C122.638 120.814 120.574 120.142 118.074 120.142C114.04 120.142 110.934 121.894 108.756 125.398C106.597 128.902 105.508 133.712 105.489 139.83H105.886C106.814 138.163 108.017 136.733 109.494 135.54C110.972 134.347 112.638 133.428 114.494 132.784C116.369 132.121 118.348 131.79 120.432 131.79C123.841 131.79 126.9 132.604 129.608 134.233C132.335 135.862 134.494 138.106 136.085 140.966C137.676 143.807 138.462 147.064 138.443 150.739C138.462 154.564 137.591 158.002 135.83 161.051C134.068 164.081 131.616 166.468 128.472 168.21C125.328 169.953 121.663 170.814 117.477 170.795ZM117.42 162.273C119.485 162.273 121.331 161.771 122.96 160.767C124.589 159.763 125.877 158.409 126.824 156.705C127.771 155 128.235 153.087 128.216 150.966C128.235 148.883 127.78 146.998 126.852 145.312C125.943 143.627 124.684 142.292 123.074 141.307C121.464 140.322 119.627 139.83 117.562 139.83C116.028 139.83 114.598 140.123 113.273 140.71C111.947 141.297 110.792 142.112 109.807 143.153C108.822 144.176 108.045 145.369 107.477 146.733C106.928 148.078 106.644 149.517 106.625 151.051C106.644 153.078 107.117 154.943 108.045 156.648C108.973 158.352 110.252 159.716 111.881 160.739C113.509 161.761 115.356 162.273 117.42 162.273Z" fill="white"/>
    </g>
    <path d="M25.8608 242V233.273H29.2017C29.8324 233.273 30.3565 233.372 30.7741 233.571C31.1946 233.767 31.5085 234.036 31.7159 234.376C31.9261 234.717 32.0312 235.104 32.0312 235.536C32.0312 235.891 31.9631 236.195 31.8267 236.447C31.6903 236.697 31.5071 236.901 31.277 237.057C31.0469 237.213 30.7898 237.325 30.5057 237.393V237.479C30.8153 237.496 31.1122 237.591 31.3963 237.764C31.6832 237.935 31.9176 238.176 32.0994 238.489C32.2813 238.801 32.3722 239.179 32.3722 239.622C32.3722 240.074 32.2628 240.48 32.044 240.841C31.8253 241.199 31.4957 241.482 31.0554 241.689C30.6151 241.896 30.0611 242 29.3935 242H25.8608ZM27.4418 240.679H29.142C29.7159 240.679 30.1293 240.57 30.3821 240.351C30.6378 240.129 30.7656 239.845 30.7656 239.499C30.7656 239.24 30.7017 239.007 30.5739 238.8C30.446 238.589 30.2642 238.425 30.0284 238.305C29.7926 238.183 29.5114 238.122 29.1847 238.122H27.4418V240.679ZM27.4418 236.984H29.0057C29.2784 236.984 29.5241 236.935 29.7429 236.835C29.9616 236.733 30.1335 236.589 30.2585 236.405C30.3864 236.217 30.4503 235.996 30.4503 235.74C30.4503 235.402 30.331 235.124 30.0923 234.905C29.8565 234.686 29.5057 234.577 29.0398 234.577H27.4418V236.984ZM36.5344 242.128C35.881 242.128 35.32 241.984 34.8512 241.697C34.3853 241.411 34.0259 241.014 33.7731 240.509C33.5231 240 33.3981 239.415 33.3981 238.753C33.3981 238.088 33.5259 237.501 33.7816 236.993C34.0373 236.482 34.3981 236.084 34.864 235.8C35.3327 235.513 35.8867 235.369 36.5259 235.369C37.0572 235.369 37.5273 235.467 37.9364 235.663C38.3484 235.857 38.6765 236.131 38.9208 236.486C39.1651 236.838 39.3043 237.25 39.3384 237.722H37.864C37.8043 237.406 37.6623 237.143 37.4379 236.933C37.2163 236.72 36.9194 236.614 36.5472 236.614C36.2319 236.614 35.9549 236.699 35.7163 236.869C35.4776 237.037 35.2915 237.278 35.158 237.594C35.0273 237.909 34.962 238.287 34.962 238.727C34.962 239.173 35.0273 239.557 35.158 239.878C35.2887 240.196 35.4719 240.442 35.7077 240.615C35.9464 240.786 36.2262 240.871 36.5472 240.871C36.7745 240.871 36.9776 240.828 37.1566 240.743C37.3384 240.655 37.4904 240.528 37.6126 240.364C37.7347 240.199 37.8185 239.999 37.864 239.763H39.3384C39.3015 240.226 39.1651 240.636 38.9293 240.994C38.6935 241.349 38.3725 241.628 37.9663 241.83C37.56 242.028 37.0827 242.128 36.5344 242.128ZM43.5028 242.128C42.8466 242.128 42.2798 241.991 41.8026 241.719C41.3281 241.443 40.9631 241.054 40.7074 240.551C40.4517 240.045 40.3239 239.45 40.3239 238.766C40.3239 238.092 40.4517 237.501 40.7074 236.993C40.9659 236.482 41.3267 236.084 41.7898 235.8C42.2528 235.513 42.7969 235.369 43.4219 235.369C43.8253 235.369 44.206 235.435 44.5639 235.565C44.9247 235.693 45.2429 235.892 45.5185 236.162C45.7969 236.432 46.0156 236.776 46.1747 237.193C46.3338 237.608 46.4134 238.102 46.4134 238.676V239.149H41.0483V238.109H44.9347C44.9318 237.814 44.8679 237.551 44.7429 237.321C44.6179 237.088 44.4432 236.905 44.2188 236.771C43.9972 236.638 43.7386 236.571 43.4432 236.571C43.1278 236.571 42.8509 236.648 42.6122 236.801C42.3736 236.952 42.1875 237.151 42.054 237.398C41.9233 237.642 41.8565 237.911 41.8537 238.203V239.111C41.8537 239.491 41.9233 239.818 42.0625 240.091C42.2017 240.361 42.3963 240.568 42.6463 240.713C42.8963 240.855 43.1889 240.926 43.5241 240.926C43.7486 240.926 43.9517 240.895 44.1335 240.832C44.3153 240.767 44.473 240.672 44.6065 240.547C44.7401 240.422 44.8409 240.267 44.9091 240.082L46.3494 240.244C46.2585 240.625 46.0852 240.957 45.8295 241.241C45.5767 241.523 45.2528 241.741 44.858 241.898C44.4631 242.051 44.0114 242.128 43.5028 242.128ZM53.6651 244.224V233.273H55.212V244.224H53.6651ZM53.6651 242.128C53.185 242.128 52.7461 242.047 52.3484 241.885C51.9506 241.723 51.6069 241.493 51.3171 241.195C51.0302 240.896 50.8072 240.541 50.6481 240.129C50.4918 239.714 50.4137 239.256 50.4137 238.753C50.4137 238.25 50.4918 237.791 50.6481 237.376C50.8072 236.962 51.0302 236.605 51.3171 236.307C51.6069 236.006 51.9506 235.774 52.3484 235.612C52.7461 235.45 53.185 235.369 53.6651 235.369H53.9933V242.128H53.6651ZM53.6651 240.884H53.8569V236.614H53.6651C53.3924 236.614 53.1509 236.67 52.9407 236.784C52.7333 236.895 52.5586 237.05 52.4165 237.249C52.2773 237.445 52.1708 237.672 52.0969 237.93C52.0259 238.186 51.9904 238.46 51.9904 238.753C51.9904 239.142 52.0543 239.499 52.1822 239.822C52.31 240.143 52.4975 240.401 52.7447 240.594C52.9947 240.787 53.3015 240.884 53.6651 240.884ZM55.212 242.128H54.8839V235.369H55.212C55.6921 235.369 56.131 235.45 56.5288 235.612C56.9265 235.774 57.2688 236.006 57.5558 236.307C57.8455 236.605 58.0685 236.962 58.2248 237.376C58.3839 237.791 58.4634 238.25 58.4634 238.753C58.4634 239.256 58.3839 239.714 58.2248 240.129C58.0685 240.541 57.8455 240.896 57.5558 241.195C57.2688 241.493 56.9265 241.723 56.5288 241.885C56.131 242.047 55.6921 242.128 55.212 242.128ZM55.212 240.884C55.4876 240.884 55.729 240.828 55.9364 240.717C56.1438 240.607 56.3171 240.453 56.4563 240.257C56.5984 240.061 56.7049 239.835 56.7759 239.58C56.8469 239.321 56.8825 239.045 56.8825 238.753C56.8825 238.364 56.82 238.007 56.695 237.683C56.57 237.359 56.3825 237.101 56.1325 236.908C55.8853 236.712 55.5785 236.614 55.212 236.614H55.0202V240.884H55.212ZM61.2525 239.912L63.8732 235.455H65.4585V242H63.967V237.538L61.3548 242H59.7653V235.455H61.2525V239.912ZM66.5909 242L66.5824 240.73H66.8082C66.9787 240.73 67.1222 240.692 67.2386 240.615C67.3551 240.538 67.4517 240.411 67.5284 240.232C67.6051 240.05 67.6648 239.805 67.7074 239.499C67.75 239.192 67.7798 238.81 67.7969 238.352L67.9119 235.455H72.6847V242H71.1932V236.72H69.3139L69.2116 238.83C69.1861 239.375 69.125 239.848 69.0284 240.249C68.9347 240.646 68.8011 240.974 68.6278 241.233C68.4574 241.491 68.2429 241.685 67.9844 241.812C67.7259 241.938 67.4205 242 67.0682 242H66.5909ZM75.282 237.585H77.2124C78.0476 237.585 78.6939 237.788 79.1513 238.195C79.6087 238.601 79.8388 239.134 79.8416 239.793C79.8388 240.222 79.7337 240.602 79.5263 240.935C79.3217 241.267 79.0234 241.528 78.6314 241.719C78.2422 241.906 77.7692 242 77.2124 242H74.2379V235.455H75.7251V240.734H77.2124C77.5476 240.734 77.8232 240.649 78.0391 240.479C78.255 240.305 78.3629 240.084 78.3629 239.814C78.3629 239.53 78.255 239.298 78.0391 239.119C77.8232 238.94 77.5476 238.851 77.2124 238.851H75.282V237.585ZM84.9308 240.206L86.8739 235.455H88.1183L85.4719 242H84.3938L81.8072 235.455H83.0387L84.9308 240.206ZM82.6509 235.455V242H81.1637V235.455H82.6509ZM87.2745 242V235.455H88.7489V242H87.2745ZM91.3484 237.585H93.2788C94.114 237.585 94.7603 237.788 95.2177 238.195C95.6751 238.601 95.9052 239.134 95.908 239.793C95.9052 240.222 95.8001 240.602 95.5927 240.935C95.3881 241.267 95.0898 241.528 94.6978 241.719C94.3086 241.906 93.8356 242 93.2788 242H90.3043V235.455H91.7915V240.734H93.2788C93.614 240.734 93.8896 240.649 94.1055 240.479C94.3214 240.305 94.4293 240.084 94.4293 239.814C94.4293 239.53 94.3214 239.298 94.1055 239.119C93.8896 238.94 93.614 238.851 93.2788 238.851H91.3484V237.585ZM96.7219 242V235.455H98.2646V242H96.7219ZM101.666 240.807L101.611 241.276C101.571 241.634 101.5 241.997 101.398 242.366C101.298 242.739 101.193 243.081 101.082 243.393C100.972 243.706 100.882 243.952 100.814 244.131H99.7741C99.8139 243.957 99.8679 243.722 99.9361 243.423C100.007 243.125 100.075 242.79 100.141 242.418C100.206 242.045 100.25 241.668 100.273 241.284L100.303 240.807H101.666ZM108.956 242.128C108.303 242.128 107.742 241.984 107.273 241.697C106.807 241.411 106.448 241.014 106.195 240.509C105.945 240 105.82 239.415 105.82 238.753C105.82 238.088 105.948 237.501 106.203 236.993C106.459 236.482 106.82 236.084 107.286 235.8C107.755 235.513 108.309 235.369 108.948 235.369C109.479 235.369 109.949 235.467 110.358 235.663C110.77 235.857 111.098 236.131 111.343 236.486C111.587 236.838 111.726 237.25 111.76 237.722H110.286C110.226 237.406 110.084 237.143 109.86 236.933C109.638 236.72 109.341 236.614 108.969 236.614C108.654 236.614 108.377 236.699 108.138 236.869C107.9 237.037 107.713 237.278 107.58 237.594C107.449 237.909 107.384 238.287 107.384 238.727C107.384 239.173 107.449 239.557 107.58 239.878C107.711 240.196 107.894 240.442 108.13 240.615C108.368 240.786 108.648 240.871 108.969 240.871C109.196 240.871 109.4 240.828 109.578 240.743C109.76 240.655 109.912 240.528 110.034 240.364C110.157 240.199 110.24 239.999 110.286 239.763H111.76C111.723 240.226 111.587 240.636 111.351 240.994C111.115 241.349 110.794 241.628 110.388 241.83C109.982 242.028 109.505 242.128 108.956 242.128ZM115.925 242.128C115.268 242.128 114.702 241.991 114.224 241.719C113.75 241.443 113.385 241.054 113.129 240.551C112.874 240.045 112.746 239.45 112.746 238.766C112.746 238.092 112.874 237.501 113.129 236.993C113.388 236.482 113.749 236.084 114.212 235.8C114.675 235.513 115.219 235.369 115.844 235.369C116.247 235.369 116.628 235.435 116.986 235.565C117.347 235.693 117.665 235.892 117.94 236.162C118.219 236.432 118.438 236.776 118.597 237.193C118.756 237.608 118.835 238.102 118.835 238.676V239.149H113.47V238.109H117.357C117.354 237.814 117.29 237.551 117.165 237.321C117.04 237.088 116.865 236.905 116.641 236.771C116.419 236.638 116.161 236.571 115.865 236.571C115.55 236.571 115.273 236.648 115.034 236.801C114.795 236.952 114.609 237.151 114.476 237.398C114.345 237.642 114.278 237.911 114.276 238.203V239.111C114.276 239.491 114.345 239.818 114.484 240.091C114.624 240.361 114.818 240.568 115.068 240.713C115.318 240.855 115.611 240.926 115.946 240.926C116.17 240.926 116.374 240.895 116.555 240.832C116.737 240.767 116.895 240.672 117.028 240.547C117.162 240.422 117.263 240.267 117.331 240.082L118.771 240.244C118.68 240.625 118.507 240.957 118.251 241.241C117.999 241.523 117.675 241.741 117.28 241.898C116.885 242.051 116.433 242.128 115.925 242.128ZM120.14 244.455V235.455H121.657V236.537H121.747C121.826 236.378 121.939 236.209 122.083 236.03C122.228 235.848 122.424 235.693 122.672 235.565C122.919 235.435 123.234 235.369 123.618 235.369C124.123 235.369 124.579 235.499 124.985 235.757C125.395 236.013 125.718 236.392 125.957 236.895C126.199 237.395 126.319 238.009 126.319 238.736C126.319 239.455 126.201 240.065 125.966 240.568C125.73 241.071 125.409 241.455 125.002 241.719C124.596 241.983 124.136 242.115 123.622 242.115C123.247 242.115 122.936 242.053 122.689 241.928C122.441 241.803 122.243 241.652 122.092 241.476C121.944 241.297 121.829 241.128 121.747 240.969H121.683V244.455H120.14ZM121.653 238.727C121.653 239.151 121.713 239.521 121.832 239.839C121.954 240.158 122.129 240.406 122.356 240.585C122.586 240.761 122.865 240.849 123.191 240.849C123.532 240.849 123.818 240.759 124.048 240.577C124.278 240.392 124.451 240.141 124.568 239.822C124.687 239.501 124.747 239.136 124.747 238.727C124.747 238.321 124.689 237.96 124.572 237.645C124.456 237.33 124.282 237.082 124.052 236.903C123.822 236.724 123.535 236.635 123.191 236.635C122.862 236.635 122.582 236.722 122.352 236.895C122.122 237.068 121.947 237.311 121.828 237.624C121.711 237.936 121.653 238.304 121.653 238.727ZM129.127 239.912L131.748 235.455H133.333V242H131.842V237.538L129.23 242H127.64V235.455H129.127V239.912ZM136.801 242.132C136.386 242.132 136.013 242.058 135.68 241.911C135.351 241.76 135.089 241.538 134.896 241.246C134.706 240.953 134.611 240.592 134.611 240.163C134.611 239.794 134.679 239.489 134.815 239.247C134.952 239.006 135.138 238.812 135.374 238.668C135.609 238.523 135.875 238.413 136.17 238.339C136.469 238.263 136.777 238.207 137.095 238.173C137.479 238.134 137.79 238.098 138.028 238.067C138.267 238.033 138.44 237.982 138.548 237.913C138.659 237.842 138.714 237.733 138.714 237.585V237.56C138.714 237.239 138.619 236.99 138.429 236.814C138.239 236.638 137.964 236.55 137.607 236.55C137.229 236.55 136.929 236.632 136.707 236.797C136.489 236.962 136.341 237.156 136.264 237.381L134.824 237.176C134.938 236.778 135.125 236.446 135.386 236.179C135.648 235.909 135.967 235.707 136.345 235.574C136.723 235.438 137.141 235.369 137.598 235.369C137.913 235.369 138.227 235.406 138.54 235.48C138.852 235.554 139.138 235.676 139.396 235.847C139.655 236.014 139.862 236.243 140.018 236.533C140.178 236.822 140.257 237.185 140.257 237.619V242H138.774V241.101H138.723C138.629 241.283 138.497 241.453 138.327 241.612C138.159 241.768 137.947 241.895 137.692 241.991C137.439 242.085 137.142 242.132 136.801 242.132ZM137.202 240.999C137.511 240.999 137.78 240.937 138.007 240.815C138.234 240.69 138.409 240.526 138.531 240.321C138.656 240.116 138.719 239.893 138.719 239.652V238.881C138.67 238.92 138.588 238.957 138.472 238.991C138.358 239.026 138.23 239.055 138.088 239.081C137.946 239.107 137.805 239.129 137.666 239.149C137.527 239.169 137.406 239.186 137.304 239.2C137.074 239.232 136.868 239.283 136.686 239.354C136.504 239.425 136.361 239.524 136.256 239.652C136.151 239.777 136.098 239.939 136.098 240.138C136.098 240.422 136.202 240.636 136.409 240.781C136.616 240.926 136.881 240.999 137.202 240.999ZM141.357 242L141.348 240.73H141.574C141.744 240.73 141.888 240.692 142.004 240.615C142.121 240.538 142.217 240.411 142.294 240.232C142.371 240.05 142.43 239.805 142.473 239.499C142.516 239.192 142.545 238.81 142.562 238.352L142.678 235.455H147.45V242H145.959V236.72H144.08L143.977 238.83C143.952 239.375 143.891 239.848 143.794 240.249C143.7 240.646 143.567 240.974 143.393 241.233C143.223 241.491 143.009 241.685 142.75 241.812C142.491 241.938 142.186 242 141.834 242H141.357ZM150.048 237.585H151.978C152.813 237.585 153.46 237.788 153.917 238.195C154.374 238.601 154.604 239.134 154.607 239.793C154.604 240.222 154.499 240.602 154.292 240.935C154.087 241.267 153.789 241.528 153.397 241.719C153.008 241.906 152.535 242 151.978 242H149.004V235.455H150.491V240.734H151.978C152.313 240.734 152.589 240.649 152.805 240.479C153.021 240.305 153.129 240.084 153.129 239.814C153.129 239.53 153.021 239.298 152.805 239.119C152.589 238.94 152.313 238.851 151.978 238.851H150.048V237.585ZM155.421 242V235.455H156.964V242H155.421ZM163.018 239.912L165.639 235.455H167.224V242H165.733V237.538L163.12 242H161.531V235.455H163.018V239.912ZM173.668 242.132C173.254 242.132 172.88 242.058 172.548 241.911C172.218 241.76 171.957 241.538 171.763 241.246C171.573 240.953 171.478 240.592 171.478 240.163C171.478 239.794 171.546 239.489 171.683 239.247C171.819 239.006 172.005 238.812 172.241 238.668C172.477 238.523 172.742 238.413 173.038 238.339C173.336 238.263 173.644 238.207 173.962 238.173C174.346 238.134 174.657 238.098 174.896 238.067C175.134 238.033 175.308 237.982 175.415 237.913C175.526 237.842 175.582 237.733 175.582 237.585V237.56C175.582 237.239 175.487 236.99 175.296 236.814C175.106 236.638 174.832 236.55 174.474 236.55C174.096 236.55 173.796 236.632 173.575 236.797C173.356 236.962 173.208 237.156 173.131 237.381L171.691 237.176C171.805 236.778 171.992 236.446 172.254 236.179C172.515 235.909 172.835 235.707 173.212 235.574C173.59 235.438 174.008 235.369 174.465 235.369C174.781 235.369 175.094 235.406 175.407 235.48C175.719 235.554 176.005 235.676 176.263 235.847C176.522 236.014 176.729 236.243 176.886 236.533C177.045 236.822 177.124 237.185 177.124 237.619V242H175.641V241.101H175.59C175.496 241.283 175.364 241.453 175.194 241.612C175.026 241.768 174.815 241.895 174.559 241.991C174.306 242.085 174.009 242.132 173.668 242.132ZM174.069 240.999C174.379 240.999 174.647 240.937 174.874 240.815C175.102 240.69 175.276 240.526 175.398 240.321C175.523 240.116 175.586 239.893 175.586 239.652V238.881C175.538 238.92 175.455 238.957 175.339 238.991C175.225 239.026 175.097 239.055 174.955 239.081C174.813 239.107 174.673 239.129 174.533 239.149C174.394 239.169 174.273 239.186 174.171 239.2C173.941 239.232 173.735 239.283 173.553 239.354C173.371 239.425 173.228 239.524 173.123 239.652C173.018 239.777 172.965 239.939 172.965 240.138C172.965 240.422 173.069 240.636 173.276 240.781C173.484 240.926 173.748 240.999 174.069 240.999ZM183.171 238.088V239.354H179.685V238.088H183.171ZM180.163 235.455V242H178.675V235.455H180.163ZM184.181 235.455V242H182.698V235.455H184.181ZM187.229 239.912L189.85 235.455H191.435V242H189.944V237.538L187.331 242H185.742V235.455H187.229V239.912ZM196.786 240.206L198.729 235.455H199.974L197.327 242H196.249L193.663 235.455H194.894L196.786 240.206ZM194.506 235.455V242H193.019V235.455H194.506ZM199.13 242V235.455H200.604V242H199.13ZM205.058 242.128C204.401 242.128 203.835 241.991 203.357 241.719C202.883 241.443 202.518 241.054 202.262 240.551C202.006 240.045 201.879 239.45 201.879 238.766C201.879 238.092 202.006 237.501 202.262 236.993C202.521 236.482 202.881 236.084 203.344 235.8C203.808 235.513 204.352 235.369 204.977 235.369C205.38 235.369 205.761 235.435 206.119 235.565C206.479 235.693 206.798 235.892 207.073 236.162C207.352 236.432 207.57 236.776 207.729 237.193C207.888 237.608 207.968 238.102 207.968 238.676V239.149H202.603V238.109H206.489C206.487 237.814 206.423 237.551 206.298 237.321C206.173 237.088 205.998 236.905 205.773 236.771C205.552 236.638 205.293 236.571 204.998 236.571C204.683 236.571 204.406 236.648 204.167 236.801C203.928 236.952 203.742 237.151 203.609 237.398C203.478 237.642 203.411 237.911 203.408 238.203V239.111C203.408 239.491 203.478 239.818 203.617 240.091C203.756 240.361 203.951 240.568 204.201 240.713C204.451 240.855 204.744 240.926 205.079 240.926C205.303 240.926 205.506 240.895 205.688 240.832C205.87 240.767 206.028 240.672 206.161 240.547C206.295 240.422 206.396 240.267 206.464 240.082L207.904 240.244C207.813 240.625 207.64 240.957 207.384 241.241C207.131 241.523 206.808 241.741 206.413 241.898C206.018 242.051 205.566 242.128 205.058 242.128Z" fill="white"/>
    <path d="M54.952 65.32C53.2027 65.32 51.528 65.0747 49.928 64.584C48.328 64.072 47.0587 63.4213 46.12 62.632L47.56 59.4C48.456 60.104 49.5653 60.6907 50.888 61.16C52.2107 61.6293 53.5653 61.864 54.952 61.864C56.1253 61.864 57.0747 61.736 57.8 61.48C58.5253 61.224 59.0587 60.8827 59.4 60.456C59.7413 60.008 59.912 59.5067 59.912 58.952C59.912 58.2693 59.6667 57.7253 59.176 57.32C58.6853 56.8933 58.0453 56.5627 57.256 56.328C56.488 56.072 55.624 55.8373 54.664 55.624C53.7253 55.4107 52.776 55.1653 51.816 54.888C50.8773 54.5893 50.0133 54.216 49.224 53.768C48.456 53.2987 47.8267 52.68 47.336 51.912C46.8453 51.144 46.6 50.1627 46.6 48.968C46.6 47.752 46.92 46.6427 47.56 45.64C48.2213 44.616 49.2133 43.8053 50.536 43.208C51.88 42.5893 53.576 42.28 55.624 42.28C56.968 42.28 58.3013 42.4507 59.624 42.792C60.9467 43.1333 62.0987 43.624 63.08 44.264L61.768 47.496C60.7653 46.8987 59.7307 46.4613 58.664 46.184C57.5973 45.8853 56.5733 45.736 55.592 45.736C54.44 45.736 53.5013 45.8747 52.776 46.152C52.072 46.4293 51.5493 46.792 51.208 47.24C50.888 47.688 50.728 48.2 50.728 48.776C50.728 49.4587 50.9627 50.0133 51.432 50.44C51.9227 50.8453 52.552 51.1653 53.32 51.4C54.1093 51.6347 54.984 51.8693 55.944 52.104C56.904 52.3173 57.8533 52.5627 58.792 52.84C59.752 53.1173 60.616 53.48 61.384 53.928C62.1733 54.376 62.8027 54.984 63.272 55.752C63.7627 56.52 64.008 57.4907 64.008 58.664C64.008 59.8587 63.6773 60.968 63.016 61.992C62.376 62.9947 61.384 63.8053 60.04 64.424C58.696 65.0213 57 65.32 54.952 65.32ZM74.181 65.224C72.3037 65.224 70.853 64.744 69.829 63.784C68.805 62.8027 68.293 61.3627 68.293 59.464V44.136H72.293V59.368C72.293 60.1787 72.4957 60.808 72.901 61.256C73.3277 61.704 73.9143 61.928 74.661 61.928C75.557 61.928 76.3037 61.6933 76.901 61.224L78.021 64.072C77.5517 64.456 76.9757 64.744 76.293 64.936C75.6103 65.128 74.9063 65.224 74.181 65.224ZM65.477 51.24V48.04H76.869V51.24H65.477ZM91.8395 65V61.544L91.6155 60.808V54.76C91.6155 53.5867 91.2635 52.68 90.5595 52.04C89.8555 51.3787 88.7888 51.048 87.3595 51.048C86.3995 51.048 85.4502 51.1973 84.5115 51.496C83.5942 51.7947 82.8155 52.2107 82.1755 52.744L80.6075 49.832C81.5248 49.128 82.6128 48.6053 83.8715 48.264C85.1515 47.9013 86.4742 47.72 87.8395 47.72C90.3142 47.72 92.2235 48.3173 93.5675 49.512C94.9328 50.6853 95.6155 52.5093 95.6155 54.984V65H91.8395ZM86.4635 65.224C85.1835 65.224 84.0635 65.0107 83.1035 64.584C82.1435 64.136 81.3968 63.528 80.8635 62.76C80.3515 61.9707 80.0955 61.0853 80.0955 60.104C80.0955 59.144 80.3195 58.28 80.7675 57.512C81.2368 56.744 81.9942 56.136 83.0395 55.688C84.0848 55.24 85.4715 55.016 87.1995 55.016H92.1595V57.672H87.4875C86.1222 57.672 85.2048 57.896 84.7355 58.344C84.2662 58.7707 84.0315 59.304 84.0315 59.944C84.0315 60.6693 84.3195 61.2453 84.8955 61.672C85.4715 62.0987 86.2715 62.312 87.2955 62.312C88.2768 62.312 89.1515 62.088 89.9195 61.64C90.7088 61.192 91.2742 60.5307 91.6155 59.656L92.2875 62.056C91.9035 63.0587 91.2102 63.8373 90.2075 64.392C89.2262 64.9467 87.9782 65.224 86.4635 65.224ZM110.445 47.72C111.81 47.72 113.026 47.9867 114.093 48.52C115.181 49.0533 116.034 49.8747 116.653 50.984C117.272 52.072 117.581 53.48 117.581 55.208V65H113.581V55.72C113.581 54.2053 113.218 53.0747 112.493 52.328C111.789 51.5813 110.797 51.208 109.517 51.208C108.578 51.208 107.746 51.4 107.021 51.784C106.296 52.168 105.73 52.744 105.325 53.512C104.941 54.2587 104.749 55.208 104.749 56.36V65H100.749V47.912H104.557V52.52L103.885 51.112C104.482 50.024 105.346 49.192 106.477 48.616C107.629 48.0187 108.952 47.72 110.445 47.72ZM129.919 65.224C128.276 65.224 126.793 64.8613 125.471 64.136C124.169 63.3893 123.145 62.3653 122.399 61.064C121.652 59.7627 121.279 58.2267 121.279 56.456C121.279 54.6853 121.652 53.1493 122.399 51.848C123.145 50.5467 124.169 49.5333 125.471 48.808C126.793 48.0827 128.276 47.72 129.919 47.72C131.348 47.72 132.628 48.04 133.759 48.68C134.889 49.2987 135.785 50.248 136.447 51.528C137.108 52.808 137.439 54.4507 137.439 56.456C137.439 58.44 137.119 60.0827 136.479 61.384C135.839 62.664 134.953 63.624 133.823 64.264C132.692 64.904 131.391 65.224 129.919 65.224ZM130.399 61.8C131.359 61.8 132.212 61.5867 132.959 61.16C133.727 60.7333 134.335 60.1147 134.783 59.304C135.252 58.4933 135.487 57.544 135.487 56.456C135.487 55.3467 135.252 54.3973 134.783 53.608C134.335 52.7973 133.727 52.1787 132.959 51.752C132.212 51.3253 131.359 51.112 130.399 51.112C129.439 51.112 128.575 51.3253 127.807 51.752C127.06 52.1787 126.452 52.7973 125.983 53.608C125.535 54.3973 125.311 55.3467 125.311 56.456C125.311 57.544 125.535 58.4933 125.983 59.304C126.452 60.1147 127.06 60.7333 127.807 61.16C128.575 61.5867 129.439 61.8 130.399 61.8ZM135.583 65V60.968L135.743 56.424L135.423 51.88V41.256H139.391V65H135.583ZM155.183 65V61.544L154.959 60.808V54.76C154.959 53.5867 154.607 52.68 153.903 52.04C153.199 51.3787 152.133 51.048 150.703 51.048C149.743 51.048 148.794 51.1973 147.855 51.496C146.938 51.7947 146.159 52.2107 145.519 52.744L143.951 49.832C144.869 49.128 145.957 48.6053 147.215 48.264C148.495 47.9013 149.818 47.72 151.183 47.72C153.658 47.72 155.567 48.3173 156.911 49.512C158.277 50.6853 158.959 52.5093 158.959 54.984V65H155.183ZM149.807 65.224C148.527 65.224 147.407 65.0107 146.447 64.584C145.487 64.136 144.741 63.528 144.207 62.76C143.695 61.9707 143.439 61.0853 143.439 60.104C143.439 59.144 143.663 58.28 144.111 57.512C144.581 56.744 145.338 56.136 146.383 55.688C147.429 55.24 148.815 55.016 150.543 55.016H155.503V57.672H150.831C149.466 57.672 148.549 57.896 148.079 58.344C147.61 58.7707 147.375 59.304 147.375 59.944C147.375 60.6693 147.663 61.2453 148.239 61.672C148.815 62.0987 149.615 62.312 150.639 62.312C151.621 62.312 152.495 62.088 153.263 61.64C154.053 61.192 154.618 60.5307 154.959 59.656L155.631 62.056C155.247 63.0587 154.554 63.8373 153.551 64.392C152.57 64.9467 151.322 65.224 149.807 65.224ZM164.093 65V47.912H167.901V52.616L167.453 51.24C167.965 50.088 168.765 49.2133 169.853 48.616C170.962 48.0187 172.338 47.72 173.981 47.72V51.528C173.81 51.4853 173.65 51.464 173.501 51.464C173.351 51.4427 173.202 51.432 173.053 51.432C171.538 51.432 170.333 51.88 169.437 52.776C168.541 53.6507 168.093 54.9627 168.093 56.712V65H164.093ZM184.431 65.224C182.554 65.224 181.103 64.744 180.079 63.784C179.055 62.8027 178.543 61.3627 178.543 59.464V44.136H182.543V59.368C182.543 60.1787 182.746 60.808 183.151 61.256C183.578 61.704 184.164 61.928 184.911 61.928C185.807 61.928 186.554 61.6933 187.151 61.224L188.271 64.072C187.802 64.456 187.226 64.744 186.543 64.936C185.86 65.128 185.156 65.224 184.431 65.224ZM175.727 51.24V48.04H187.119V51.24H175.727Z" fill="white"/>
    <defs>
        <filter id="filter0_i_636_712" x="63" y="79.8" width="107" height="112.2" filterUnits="userSpaceOnUse" color-interpolation-filters="sRGB">
            <feFlood flood-opacity="0" result="BackgroundImageFix"/>
            <feBlend mode="normal" in="SourceGraphic" in2="BackgroundImageFix" result="shape"/>
            <feColorMatrix in="SourceAlpha" type="matrix" values="0 0 0 0 0 0 0 0 0 0 0 0 0 0 0 0 0 0 127 0" result="hardAlpha"/>
            <feOffset dy="-15"/>
            <feGaussianBlur stdDeviation="2.6"/>
            <feComposite in2="hardAlpha" operator="arithmetic" k2="-1" k3="1"/>
            <feColorMatrix type="matrix" values="0 0 0 0 0.4875 0 0 0 0 0.4875 0 0 0 0 0.4875 0 0 0 0.25 0"/>
            <feBlend mode="normal" in2="shape" result="effect1_innerShadow_636_712"/>
        </filter>
        <filter id="filter1_i_636_712" x="87.2329" y="176.618" width="59.1646" height="17.8475" filterUnits="userSpaceOnUse" color-interpolation-filters="sRGB">
            <feFlood flood-opacity="0" result="BackgroundImageFix"/>
            <feBlend mode="normal" in="SourceGraphic" in2="BackgroundImageFix" result="shape"/>
            <feColorMatrix in="SourceAlpha" type="matrix" values="0 0 0 0 0 0 0 0 0 0 0 0 0 0 0 0 0 0 127 0" result="hardAlpha"/>
            <feOffset dy="-15"/>
            <feGaussianBlur stdDeviation="2.6"/>
            <feComposite in2="hardAlpha" operator="arithmetic" k2="-1" k3="1"/>
            <feColorMatrix type="matrix" values="0 0 0 0 0.4875 0 0 0 0 0.4875 0 0 0 0 0.4875 0 0 0 0.25 0"/>
            <feBlend mode="normal" in2="shape" result="effect1_innerShadow_636_712"/>
        </filter>
        <filter id="filter2_i_636_712" x="95.2329" y="105.822" width="43.2388" height="65.0018" filterUnits="userSpaceOnUse" color-interpolation-filters="sRGB">
            <feFlood flood-opacity="0" result="BackgroundImageFix"/>
            <feBlend mode="normal" in="SourceGraphic" in2="BackgroundImageFix" result="shape"/>
            <feColorMatrix in="SourceAlpha" type="matrix" values="0 0 0 0 0 0 0 0 0 0 0 0 0 0 0 0 0 0 127 0" result="hardAlpha"/>
            <feOffset dy="-15"/>
            <feGaussianBlur stdDeviation="2.6"/>
            <feComposite in2="hardAlpha" operator="arithmetic" k2="-1" k3="1"/>
            <feColorMatrix type="matrix" values="0 0 0 0 0.4875 0 0 0 0 0.4875 0 0 0 0 0.4875 0 0 0 0.25 0"/>
            <feBlend mode="normal" in2="shape" result="effect1_innerShadow_636_712"/>
        </filter>
    </defs>
</svg>
