<svg width="234" height="311" viewBox="0 0 234 311" fill="none" xmlns="http://www.w3.org/2000/svg">
    <rect width="234" height="311" fill="#C49028"/>
    <g filter="url(#filter0_i_636_672)">
        <rect x="64.5" y="86.5" width="104" height="104" rx="13.5" stroke="white" stroke-width="3"/>
    </g>
    <rect x="77" y="170" width="80" height="31" fill="#C49028"/>
    <g filter="url(#filter1_i_636_672)">
        <path d="M91.233 181.818H92.7045L96.1648 190.27H96.2841L99.7443 181.818H101.216V192H100.062V184.264H99.9631L96.7812 192H95.6676L92.4858 184.264H92.3864V192H91.233V181.818ZM106.731 192.159C105.995 192.159 105.36 191.997 104.827 191.672C104.296 191.344 103.887 190.886 103.599 190.3C103.314 189.71 103.171 189.024 103.171 188.241C103.171 187.459 103.314 186.77 103.599 186.173C103.887 185.573 104.288 185.106 104.802 184.771C105.319 184.433 105.922 184.264 106.611 184.264C107.009 184.264 107.402 184.33 107.79 184.463C108.177 184.596 108.53 184.811 108.849 185.109C109.167 185.404 109.42 185.795 109.609 186.283C109.798 186.77 109.893 187.37 109.893 188.082V188.58H104.006V187.565H108.699C108.699 187.134 108.613 186.75 108.441 186.412C108.272 186.074 108.03 185.807 107.715 185.612C107.403 185.416 107.036 185.318 106.611 185.318C106.144 185.318 105.74 185.434 105.398 185.666C105.06 185.895 104.8 186.193 104.618 186.561C104.435 186.929 104.344 187.323 104.344 187.744V188.42C104.344 188.997 104.444 189.486 104.643 189.887C104.845 190.285 105.125 190.588 105.483 190.797C105.841 191.002 106.257 191.105 106.731 191.105C107.039 191.105 107.317 191.062 107.566 190.976C107.818 190.886 108.035 190.754 108.217 190.578C108.399 190.399 108.54 190.177 108.64 189.912L109.773 190.23C109.654 190.615 109.453 190.953 109.172 191.244C108.89 191.533 108.542 191.758 108.128 191.92C107.713 192.08 107.248 192.159 106.731 192.159ZM114.78 192.159C114.064 192.159 113.447 191.99 112.93 191.652C112.413 191.314 112.015 190.848 111.737 190.255C111.459 189.662 111.319 188.984 111.319 188.222C111.319 187.446 111.462 186.762 111.747 186.168C112.035 185.572 112.436 185.106 112.95 184.771C113.467 184.433 114.07 184.264 114.76 184.264C115.297 184.264 115.781 184.364 116.211 184.562C116.642 184.761 116.995 185.04 117.27 185.398C117.546 185.756 117.716 186.173 117.782 186.651H116.609C116.52 186.303 116.321 185.994 116.013 185.726C115.708 185.454 115.297 185.318 114.78 185.318C114.322 185.318 113.921 185.437 113.577 185.676C113.235 185.911 112.968 186.245 112.776 186.675C112.587 187.103 112.493 187.605 112.493 188.182C112.493 188.772 112.586 189.286 112.771 189.723C112.96 190.161 113.225 190.5 113.567 190.742C113.911 190.984 114.316 191.105 114.78 191.105C115.085 191.105 115.361 191.052 115.61 190.946C115.858 190.84 116.069 190.688 116.241 190.489C116.414 190.29 116.536 190.051 116.609 189.773H117.782C117.716 190.223 117.552 190.629 117.29 190.991C117.032 191.349 116.689 191.634 116.261 191.846C115.837 192.055 115.343 192.159 114.78 192.159ZM124.091 192V185.438H122.063C121.606 185.438 121.246 185.544 120.984 185.756C120.722 185.968 120.591 186.259 120.591 186.631C120.591 186.995 120.709 187.282 120.944 187.491C121.183 187.7 121.51 187.804 121.924 187.804H124.39V188.898H121.924C121.407 188.898 120.961 188.807 120.586 188.624C120.212 188.442 119.924 188.182 119.721 187.844C119.519 187.502 119.418 187.098 119.418 186.631C119.418 186.16 119.524 185.756 119.736 185.418C119.948 185.08 120.252 184.819 120.646 184.637C121.044 184.455 121.516 184.364 122.063 184.364H125.205V192H124.091ZM119.001 192L121.168 188.202H122.441L120.273 192H119.001ZM133.365 184.364V190.906H134.439V194.466H133.265V192H127.359V184.364H128.532V190.906H132.191V184.364H133.365ZM138.493 192.179C138.009 192.179 137.57 192.088 137.175 191.906C136.781 191.72 136.468 191.453 136.236 191.105C136.004 190.754 135.888 190.33 135.888 189.832C135.888 189.395 135.974 189.04 136.146 188.768C136.319 188.493 136.549 188.278 136.837 188.122C137.126 187.966 137.444 187.85 137.792 187.774C138.143 187.695 138.496 187.632 138.851 187.585C139.315 187.526 139.691 187.481 139.979 187.451C140.271 187.418 140.483 187.363 140.616 187.287C140.752 187.211 140.82 187.078 140.82 186.889V186.849C140.82 186.359 140.685 185.978 140.417 185.706C140.152 185.434 139.749 185.298 139.209 185.298C138.649 185.298 138.21 185.421 137.891 185.666C137.573 185.911 137.349 186.173 137.22 186.452L136.107 186.054C136.305 185.59 136.571 185.229 136.902 184.97C137.237 184.708 137.601 184.526 137.996 184.423C138.393 184.317 138.785 184.264 139.169 184.264C139.414 184.264 139.696 184.294 140.014 184.354C140.336 184.41 140.646 184.528 140.944 184.707C141.246 184.886 141.496 185.156 141.695 185.517C141.893 185.878 141.993 186.362 141.993 186.969V192H140.82V190.966H140.76C140.68 191.132 140.548 191.309 140.362 191.498C140.177 191.687 139.93 191.848 139.621 191.98C139.313 192.113 138.937 192.179 138.493 192.179ZM138.672 191.125C139.136 191.125 139.527 191.034 139.845 190.852C140.167 190.669 140.409 190.434 140.571 190.146C140.737 189.857 140.82 189.554 140.82 189.236V188.162C140.77 188.222 140.661 188.276 140.491 188.326C140.326 188.372 140.134 188.414 139.915 188.45C139.699 188.483 139.489 188.513 139.283 188.54C139.081 188.563 138.917 188.583 138.791 188.599C138.486 188.639 138.201 188.704 137.936 188.793C137.674 188.879 137.462 189.01 137.3 189.186C137.141 189.358 137.061 189.594 137.061 189.892C137.061 190.3 137.212 190.608 137.513 190.817C137.818 191.022 138.205 191.125 138.672 191.125Z" fill="white"/>
    </g>
    <g filter="url(#filter2_i_636_672)">
        <path d="M117.051 170.795C112.96 170.795 109.324 170.095 106.142 168.693C102.979 167.292 100.479 165.341 98.642 162.841C96.8049 160.341 95.8295 157.453 95.7159 154.176H106.398C106.492 155.748 107.013 157.121 107.96 158.295C108.907 159.451 110.167 160.35 111.739 160.994C113.311 161.638 115.072 161.96 117.023 161.96C119.106 161.96 120.953 161.6 122.562 160.881C124.172 160.142 125.432 159.119 126.341 157.812C127.25 156.506 127.695 155 127.676 153.295C127.695 151.534 127.241 149.981 126.312 148.636C125.384 147.292 124.04 146.241 122.278 145.483C120.536 144.725 118.434 144.347 115.972 144.347H110.83V136.222H115.972C117.998 136.222 119.769 135.871 121.284 135.17C122.818 134.47 124.021 133.485 124.892 132.216C125.763 130.928 126.189 129.441 126.17 127.756C126.189 126.108 125.82 124.678 125.062 123.466C124.324 122.235 123.273 121.278 121.909 120.597C120.564 119.915 118.983 119.574 117.165 119.574C115.384 119.574 113.737 119.896 112.222 120.54C110.706 121.184 109.485 122.102 108.557 123.295C107.629 124.47 107.136 125.871 107.08 127.5H96.9375C97.0133 124.242 97.9508 121.383 99.75 118.92C101.568 116.439 103.992 114.508 107.023 113.125C110.053 111.723 113.453 111.023 117.222 111.023C121.104 111.023 124.475 111.752 127.335 113.21C130.214 114.65 132.439 116.591 134.011 119.034C135.583 121.477 136.369 124.176 136.369 127.131C136.388 130.407 135.422 133.153 133.472 135.369C131.54 137.585 129.002 139.034 125.858 139.716V140.17C129.949 140.739 133.083 142.254 135.261 144.716C137.458 147.159 138.547 150.199 138.528 153.835C138.528 157.093 137.6 160.009 135.744 162.585C133.907 165.142 131.369 167.15 128.131 168.608C124.911 170.066 121.218 170.795 117.051 170.795Z" fill="white"/>
    </g>
    <path d="M48.8608 242V233.273H52.2017C52.8324 233.273 53.3565 233.372 53.7741 233.571C54.1946 233.767 54.5085 234.036 54.7159 234.376C54.9261 234.717 55.0312 235.104 55.0312 235.536C55.0312 235.891 54.9631 236.195 54.8267 236.447C54.6903 236.697 54.5071 236.901 54.277 237.057C54.0469 237.213 53.7898 237.325 53.5057 237.393V237.479C53.8153 237.496 54.1122 237.591 54.3963 237.764C54.6832 237.935 54.9176 238.176 55.0994 238.489C55.2813 238.801 55.3722 239.179 55.3722 239.622C55.3722 240.074 55.2628 240.48 55.044 240.841C54.8253 241.199 54.4957 241.482 54.0554 241.689C53.6151 241.896 53.0611 242 52.3935 242H48.8608ZM50.4418 240.679H52.142C52.7159 240.679 53.1293 240.57 53.3821 240.351C53.6378 240.129 53.7656 239.845 53.7656 239.499C53.7656 239.24 53.7017 239.007 53.5739 238.8C53.446 238.589 53.2642 238.425 53.0284 238.305C52.7926 238.183 52.5114 238.122 52.1847 238.122H50.4418V240.679ZM50.4418 236.984H52.0057C52.2784 236.984 52.5241 236.935 52.7429 236.835C52.9616 236.733 53.1335 236.589 53.2585 236.405C53.3864 236.217 53.4503 235.996 53.4503 235.74C53.4503 235.402 53.331 235.124 53.0923 234.905C52.8565 234.686 52.5057 234.577 52.0398 234.577H50.4418V236.984ZM59.5344 242.128C58.881 242.128 58.32 241.984 57.8512 241.697C57.3853 241.411 57.0259 241.014 56.7731 240.509C56.5231 240 56.3981 239.415 56.3981 238.753C56.3981 238.088 56.5259 237.501 56.7816 236.993C57.0373 236.482 57.3981 236.084 57.864 235.8C58.3327 235.513 58.8867 235.369 59.5259 235.369C60.0572 235.369 60.5273 235.467 60.9364 235.663C61.3484 235.857 61.6765 236.131 61.9208 236.486C62.1651 236.838 62.3043 237.25 62.3384 237.722H60.864C60.8043 237.406 60.6623 237.143 60.4379 236.933C60.2163 236.72 59.9194 236.614 59.5472 236.614C59.2319 236.614 58.9549 236.699 58.7163 236.869C58.4776 237.037 58.2915 237.278 58.158 237.594C58.0273 237.909 57.962 238.287 57.962 238.727C57.962 239.173 58.0273 239.557 58.158 239.878C58.2887 240.196 58.4719 240.442 58.7077 240.615C58.9464 240.786 59.2262 240.871 59.5472 240.871C59.7745 240.871 59.9776 240.828 60.1566 240.743C60.3384 240.655 60.4904 240.528 60.6126 240.364C60.7347 240.199 60.8185 239.999 60.864 239.763H62.3384C62.3015 240.226 62.1651 240.636 61.9293 240.994C61.6935 241.349 61.3725 241.628 60.9663 241.83C60.56 242.028 60.0827 242.128 59.5344 242.128ZM66.5028 242.128C65.8466 242.128 65.2798 241.991 64.8026 241.719C64.3281 241.443 63.9631 241.054 63.7074 240.551C63.4517 240.045 63.3239 239.45 63.3239 238.766C63.3239 238.092 63.4517 237.501 63.7074 236.993C63.9659 236.482 64.3267 236.084 64.7898 235.8C65.2528 235.513 65.7969 235.369 66.4219 235.369C66.8253 235.369 67.206 235.435 67.5639 235.565C67.9247 235.693 68.2429 235.892 68.5185 236.162C68.7969 236.432 69.0156 236.776 69.1747 237.193C69.3338 237.608 69.4134 238.102 69.4134 238.676V239.149H64.0483V238.109H67.9347C67.9318 237.814 67.8679 237.551 67.7429 237.321C67.6179 237.088 67.4432 236.905 67.2188 236.771C66.9972 236.638 66.7386 236.571 66.4432 236.571C66.1278 236.571 65.8509 236.648 65.6122 236.801C65.3736 236.952 65.1875 237.151 65.054 237.398C64.9233 237.642 64.8565 237.911 64.8537 238.203V239.111C64.8537 239.491 64.9233 239.818 65.0625 240.091C65.2017 240.361 65.3963 240.568 65.6463 240.713C65.8963 240.855 66.1889 240.926 66.5241 240.926C66.7486 240.926 66.9517 240.895 67.1335 240.832C67.3153 240.767 67.473 240.672 67.6065 240.547C67.7401 240.422 67.8409 240.267 67.9091 240.082L69.3494 240.244C69.2585 240.625 69.0852 240.957 68.8295 241.241C68.5767 241.523 68.2528 241.741 67.858 241.898C67.4631 242.051 67.0114 242.128 66.5028 242.128ZM75.5785 242.132C75.1637 242.132 74.7901 242.058 74.4577 241.911C74.1282 241.76 73.8668 241.538 73.6737 241.246C73.4833 240.953 73.3881 240.592 73.3881 240.163C73.3881 239.794 73.4563 239.489 73.5927 239.247C73.729 239.006 73.9151 238.812 74.1509 238.668C74.3867 238.523 74.6523 238.413 74.9478 238.339C75.2461 238.263 75.5543 238.207 75.8725 238.173C76.256 238.134 76.5671 238.098 76.8058 238.067C77.0444 238.033 77.2177 237.982 77.3256 237.913C77.4364 237.842 77.4918 237.733 77.4918 237.585V237.56C77.4918 237.239 77.3967 236.99 77.2063 236.814C77.016 236.638 76.7418 236.55 76.3839 236.55C76.006 236.55 75.7063 236.632 75.4847 236.797C75.266 236.962 75.1183 237.156 75.0415 237.381L73.6012 237.176C73.7148 236.778 73.9023 236.446 74.1637 236.179C74.4251 235.909 74.7447 235.707 75.1225 235.574C75.5004 235.438 75.918 235.369 76.3754 235.369C76.6907 235.369 77.0046 235.406 77.3171 235.48C77.6296 235.554 77.9151 235.676 78.1737 235.847C78.4322 236.014 78.6396 236.243 78.7958 236.533C78.9549 236.822 79.0344 237.185 79.0344 237.619V242H77.5515V241.101H77.5004C77.4066 241.283 77.2745 241.453 77.104 241.612C76.9364 241.768 76.7248 241.895 76.4691 241.991C76.2163 242.085 75.9194 242.132 75.5785 242.132ZM75.979 240.999C76.2887 240.999 76.5572 240.937 76.7844 240.815C77.0117 240.69 77.1864 240.526 77.3086 240.321C77.4336 240.116 77.4961 239.893 77.4961 239.652V238.881C77.4478 238.92 77.3654 238.957 77.2489 238.991C77.1353 239.026 77.0075 239.055 76.8654 239.081C76.7234 239.107 76.5827 239.129 76.4435 239.149C76.3043 239.169 76.1836 239.186 76.0813 239.2C75.8512 239.232 75.6452 239.283 75.4634 239.354C75.2816 239.425 75.1381 239.524 75.033 239.652C74.9279 239.777 74.8754 239.939 74.8754 240.138C74.8754 240.422 74.979 240.636 75.1864 240.781C75.3938 240.926 75.658 240.999 75.979 240.999ZM85.0813 238.088V239.354H81.5955V238.088H85.0813ZM82.0728 235.455V242H80.5856V235.455H82.0728ZM86.0913 235.455V242H84.6083V235.455H86.0913ZM89.1392 239.912L91.7599 235.455H93.3452V242H91.8537V237.538L89.2415 242H87.652V235.455H89.1392V239.912ZM98.6964 240.206L100.64 235.455H101.884L99.2376 242H98.1594L95.5728 235.455H96.8043L98.6964 240.206ZM96.4165 235.455V242H94.9293V235.455H96.4165ZM101.04 242V235.455H102.515V242H101.04ZM106.968 242.128C106.311 242.128 105.745 241.991 105.267 241.719C104.793 241.443 104.428 241.054 104.172 240.551C103.917 240.045 103.789 239.45 103.789 238.766C103.789 238.092 103.917 237.501 104.172 236.993C104.431 236.482 104.792 236.084 105.255 235.8C105.718 235.513 106.262 235.369 106.887 235.369C107.29 235.369 107.671 235.435 108.029 235.565C108.39 235.693 108.708 235.892 108.983 236.162C109.262 236.432 109.48 236.776 109.64 237.193C109.799 237.608 109.878 238.102 109.878 238.676V239.149H104.513V238.109H108.4C108.397 237.814 108.333 237.551 108.208 237.321C108.083 237.088 107.908 236.905 107.684 236.771C107.462 236.638 107.203 236.571 106.908 236.571C106.593 236.571 106.316 236.648 106.077 236.801C105.838 236.952 105.652 237.151 105.519 237.398C105.388 237.642 105.321 237.911 105.319 238.203V239.111C105.319 239.491 105.388 239.818 105.527 240.091C105.667 240.361 105.861 240.568 106.111 240.713C106.361 240.855 106.654 240.926 106.989 240.926C107.213 240.926 107.417 240.895 107.598 240.832C107.78 240.767 107.938 240.672 108.071 240.547C108.205 240.422 108.306 240.267 108.374 240.082L109.814 240.244C109.723 240.625 109.55 240.957 109.294 241.241C109.042 241.523 108.718 241.741 108.323 241.898C107.928 242.051 107.476 242.128 106.968 242.128Z" fill="white"/>
    <path d="M85.472 65.32C83.7227 65.32 82.112 65.0427 80.64 64.488C79.1893 63.912 77.92 63.112 76.832 62.088C75.744 61.0427 74.9013 59.816 74.304 58.408C73.7067 57 73.408 55.464 73.408 53.8C73.408 52.136 73.7067 50.6 74.304 49.192C74.9013 47.784 75.744 46.568 76.832 45.544C77.9413 44.4987 79.232 43.6987 80.704 43.144C82.176 42.568 83.7867 42.28 85.536 42.28C87.4347 42.28 89.1413 42.5893 90.656 43.208C92.192 43.8267 93.4827 44.7333 94.528 45.928L91.904 48.488C91.0293 47.6133 90.08 46.9733 89.056 46.568C88.0533 46.1413 86.944 45.928 85.728 45.928C84.5547 45.928 83.4667 46.12 82.464 46.504C81.4613 46.888 80.5973 47.432 79.872 48.136C79.1467 48.84 78.5813 49.672 78.176 50.632C77.792 51.592 77.6 52.648 77.6 53.8C77.6 54.9307 77.792 55.976 78.176 56.936C78.5813 57.896 79.1467 58.7387 79.872 59.464C80.5973 60.168 81.4507 60.712 82.432 61.096C83.4133 61.48 84.5013 61.672 85.696 61.672C86.8053 61.672 87.872 61.5013 88.896 61.16C89.9413 60.7973 90.9333 60.2 91.872 59.368L94.24 62.472C93.0667 63.4107 91.7013 64.1253 90.144 64.616C88.608 65.0853 87.0507 65.32 85.472 65.32ZM90.304 61.928V53.544H94.24V62.472L90.304 61.928ZM107.023 65.224C105.273 65.224 103.716 64.8507 102.351 64.104C100.985 63.336 99.9081 62.2907 99.1188 60.968C98.3294 59.6453 97.9348 58.1413 97.9348 56.456C97.9348 54.7493 98.3294 53.2453 99.1188 51.944C99.9081 50.6213 100.985 49.5867 102.351 48.84C103.716 48.0933 105.273 47.72 107.023 47.72C108.793 47.72 110.361 48.0933 111.727 48.84C113.113 49.5867 114.191 50.6107 114.959 51.912C115.748 53.2133 116.143 54.728 116.143 56.456C116.143 58.1413 115.748 59.6453 114.959 60.968C114.191 62.2907 113.113 63.336 111.727 64.104C110.361 64.8507 108.793 65.224 107.023 65.224ZM107.023 61.8C108.004 61.8 108.879 61.5867 109.647 61.16C110.415 60.7333 111.012 60.1147 111.439 59.304C111.887 58.4933 112.111 57.544 112.111 56.456C112.111 55.3467 111.887 54.3973 111.439 53.608C111.012 52.7973 110.415 52.1787 109.647 51.752C108.879 51.3253 108.015 51.112 107.055 51.112C106.073 51.112 105.199 51.3253 104.431 51.752C103.684 52.1787 103.087 52.7973 102.639 53.608C102.191 54.3973 101.967 55.3467 101.967 56.456C101.967 57.544 102.191 58.4933 102.639 59.304C103.087 60.1147 103.684 60.7333 104.431 61.16C105.199 61.5867 106.063 61.8 107.023 61.8ZM119.968 65V41.256H123.968V65H119.968ZM136.45 65.224C134.807 65.224 133.324 64.8613 132.002 64.136C130.7 63.3893 129.676 62.3653 128.93 61.064C128.183 59.7627 127.81 58.2267 127.81 56.456C127.81 54.6853 128.183 53.1493 128.93 51.848C129.676 50.5467 130.7 49.5333 132.002 48.808C133.324 48.0827 134.807 47.72 136.45 47.72C137.879 47.72 139.159 48.04 140.29 48.68C141.42 49.2987 142.316 50.248 142.978 51.528C143.639 52.808 143.97 54.4507 143.97 56.456C143.97 58.44 143.65 60.0827 143.01 61.384C142.37 62.664 141.484 63.624 140.354 64.264C139.223 64.904 137.922 65.224 136.45 65.224ZM136.93 61.8C137.89 61.8 138.743 61.5867 139.49 61.16C140.258 60.7333 140.866 60.1147 141.314 59.304C141.783 58.4933 142.018 57.544 142.018 56.456C142.018 55.3467 141.783 54.3973 141.314 53.608C140.866 52.7973 140.258 52.1787 139.49 51.752C138.743 51.3253 137.89 51.112 136.93 51.112C135.97 51.112 135.106 51.3253 134.338 51.752C133.591 52.1787 132.983 52.7973 132.514 53.608C132.066 54.3973 131.842 55.3467 131.842 56.456C131.842 57.544 132.066 58.4933 132.514 59.304C132.983 60.1147 133.591 60.7333 134.338 61.16C135.106 61.5867 135.97 61.8 136.93 61.8ZM142.114 65V60.968L142.274 56.424L141.954 51.88V41.256H145.922V65H142.114Z" fill="white"/>
    <defs>
        <filter id="filter0_i_636_672" x="63" y="85" width="107" height="112.6" filterUnits="userSpaceOnUse" color-interpolation-filters="sRGB">
            <feFlood flood-opacity="0" result="BackgroundImageFix"/>
            <feBlend mode="normal" in="SourceGraphic" in2="BackgroundImageFix" result="shape"/>
            <feColorMatrix in="SourceAlpha" type="matrix" values="0 0 0 0 0 0 0 0 0 0 0 0 0 0 0 0 0 0 127 0" result="hardAlpha"/>
            <feOffset dy="15"/>
            <feGaussianBlur stdDeviation="2.8"/>
            <feComposite in2="hardAlpha" operator="arithmetic" k2="-1" k3="1"/>
            <feColorMatrix type="matrix" values="0 0 0 0 0.764706 0 0 0 0 0.564706 0 0 0 0 0.156863 0 0 0 0.52 0"/>
            <feBlend mode="normal" in2="shape" result="effect1_innerShadow_636_672"/>
        </filter>
        <filter id="filter1_i_636_672" x="91.2329" y="181.818" width="50.7598" height="18.2475" filterUnits="userSpaceOnUse" color-interpolation-filters="sRGB">
            <feFlood flood-opacity="0" result="BackgroundImageFix"/>
            <feBlend mode="normal" in="SourceGraphic" in2="BackgroundImageFix" result="shape"/>
            <feColorMatrix in="SourceAlpha" type="matrix" values="0 0 0 0 0 0 0 0 0 0 0 0 0 0 0 0 0 0 127 0" result="hardAlpha"/>
            <feOffset dy="15"/>
            <feGaussianBlur stdDeviation="2.8"/>
            <feComposite in2="hardAlpha" operator="arithmetic" k2="-1" k3="1"/>
            <feColorMatrix type="matrix" values="0 0 0 0 0.764706 0 0 0 0 0.564706 0 0 0 0 0.156863 0 0 0 0.52 0"/>
            <feBlend mode="normal" in2="shape" result="effect1_innerShadow_636_672"/>
        </filter>
        <filter id="filter2_i_636_672" x="95.7158" y="111.022" width="42.8408" height="65.3734" filterUnits="userSpaceOnUse" color-interpolation-filters="sRGB">
            <feFlood flood-opacity="0" result="BackgroundImageFix"/>
            <feBlend mode="normal" in="SourceGraphic" in2="BackgroundImageFix" result="shape"/>
            <feColorMatrix in="SourceAlpha" type="matrix" values="0 0 0 0 0 0 0 0 0 0 0 0 0 0 0 0 0 0 127 0" result="hardAlpha"/>
            <feOffset dy="15"/>
            <feGaussianBlur stdDeviation="2.8"/>
            <feComposite in2="hardAlpha" operator="arithmetic" k2="-1" k3="1"/>
            <feColorMatrix type="matrix" values="0 0 0 0 0.764706 0 0 0 0 0.564706 0 0 0 0 0.156863 0 0 0 0.52 0"/>
            <feBlend mode="normal" in2="shape" result="effect1_innerShadow_636_672"/>
        </filter>
    </defs>
</svg>
