<svg width="44" height="45" viewBox="0 0 44 45" fill="none" xmlns="http://www.w3.org/2000/svg">
    <path fill-rule="evenodd" clip-rule="evenodd" d="M37.6381 8.49383C37.881 8.22725 38.0132 7.87466 38.007 7.51035C38.0007 7.14603 37.8564 6.79844 37.6044 6.54079C37.3525 6.28314 37.0126 6.13555 36.6564 6.12913C36.3002 6.1227 35.9554 6.25793 35.6948 6.50633L6.36146 36.5063C6.22637 36.6351 6.11801 36.7903 6.04286 36.9628C5.96771 37.1353 5.9273 37.3215 5.92404 37.5104C5.92078 37.6992 5.95475 37.8867 6.0239 38.0618C6.09306 38.2369 6.19599 38.396 6.32656 38.5295C6.45712 38.6631 6.61265 38.7683 6.78386 38.8391C6.95508 38.9098 7.13846 38.9445 7.32308 38.9412C7.50771 38.9379 7.68978 38.8965 7.85845 38.8197C8.02711 38.7428 8.17891 38.632 8.30479 38.4938L13.869 32.8032C16.2853 33.9432 19.0518 34.6876 21.9998 34.6876C26.7995 34.6876 31.1151 32.717 34.2245 30.2757C35.7828 29.0532 37.0606 27.6957 37.9553 26.3757C38.8353 25.0782 39.4165 23.717 39.4165 22.5001C39.4165 21.2832 38.8353 19.922 37.9553 18.6263C37.0606 17.3045 35.7828 15.947 34.2245 14.7263C33.7295 14.3363 33.2015 13.9576 32.6478 13.5995L37.6381 8.49383ZM27.7381 18.6226L25.7215 20.6813C26.0891 21.4686 26.209 22.353 26.0648 23.2129C25.9205 24.0727 25.5192 24.8657 24.916 25.4826C24.3128 26.0995 23.5375 26.5099 22.6967 26.6575C21.856 26.805 20.9912 26.6823 20.2215 26.3063L18.2048 28.3688C19.5269 29.2641 21.1109 29.6644 22.6885 29.5021C24.2662 29.3398 25.7404 28.6247 26.8616 27.478C27.9828 26.3313 28.682 24.8236 28.8407 23.2101C28.9995 21.5966 28.608 19.9766 27.7326 18.6245" fill="#5F7C8D"/>
    <path d="M23.227 15.5813C23.3025 15.5957 23.3802 15.5913 23.4536 15.5685C23.527 15.5456 23.5939 15.505 23.6487 15.45L27.2237 11.7937C27.2793 11.7378 27.3195 11.668 27.3405 11.5912C27.3614 11.5144 27.3622 11.4334 27.3429 11.3561C27.3236 11.2789 27.2849 11.2082 27.2305 11.151C27.1761 11.0939 27.108 11.0524 27.033 11.0306C25.3946 10.5583 23.7009 10.3167 21.9987 10.3125C17.199 10.3125 12.8834 12.2831 9.77403 14.7244C8.2157 15.9469 6.93786 17.3044 6.04136 18.6244C5.16136 19.9219 4.58203 21.2831 4.58203 22.5C4.58203 23.7169 5.1632 25.0781 6.04136 26.3738C6.91377 27.626 7.94451 28.7546 9.1067 29.73C9.19366 29.8035 9.30441 29.841 9.41709 29.8351C9.52977 29.8292 9.6362 29.7803 9.71536 29.6981L15.1054 24.1856C15.1591 24.1296 15.1989 24.0612 15.2212 23.9861C15.2435 23.911 15.2478 23.8315 15.2337 23.7544C15.035 22.6361 15.1044 21.4853 15.4358 20.4005C15.7672 19.3157 16.3508 18.3292 17.1366 17.5255C17.9224 16.7218 18.887 16.125 19.9477 15.786C21.0084 15.4471 22.1336 15.3762 23.227 15.5794" fill="#5F7C8D"/>
</svg>
